M48
;DRILL file {KiCad 4.0.4-stable} date 01/23/17 14:00:10
;FORMAT={-:-/ absolute / metric / decimal}
FMAT,2
METRIC,TZ
T1C0.330
T2C0.775
T3C0.978
T4C1.016
T5C1.400
T6C1.501
T7C3.048
%
G90
G05
M71
T1
X60.757Y-37.592
X67.022Y-65.706
X68.433Y-47.523
X68.453Y-37.592
X69.037Y-65.735
X69.082Y-45.846
X76.022Y-31.699
X83.617Y-31.699
X91.211Y-32.512
X96.723Y-68.555
X98.196Y-68.504
X98.857Y-32.563
X98.933Y-50.902
X99.39Y-68.529
X100.609Y-68.504
X102.286Y-68.631
X106.502Y-34.265
X110.668Y-51.054
X110.719Y-52.095
X110.769Y-56.871
X110.795Y-55.601
X110.801Y-53.175
X110.82Y-54.458
X110.846Y-58.115
X114.097Y-34.265
X131.902Y-48.666
X131.902Y-53.162
X132.817Y-48.616
X132.817Y-53.137
X133.706Y-53.137
X133.731Y-48.616
X134.645Y-48.616
X134.671Y-53.162
X135.585Y-48.616
X135.585Y-53.162
X136.474Y-48.616
X136.5Y-53.162
X137.338Y-53.137
X137.338Y-48.616
X138.989Y-97.993
X139.802Y-98.984
X140.767Y-99.771
X141.249Y-62.484
X141.605Y-100.686
X142.108Y-63.293
X142.494Y-101.651
X142.926Y-63.957
X143.764Y-64.668
X144.367Y-65.393
X161.722Y-69.113
X162.687Y-70.028
X163.627Y-70.968
X164.516Y-71.857
X165.481Y-72.669
X166.421Y-73.711
X167.513Y-35.052
X167.513Y-74.752
X175.108Y-35.052
X180.518Y-45.06
X180.67Y-58.547
X180.721Y-57.099
X182.677Y-31.699
X190.297Y-31.699
X197.891Y-31.699
X205.435Y-31.699
T2
X89.662Y-88.875
X89.662Y-91.415
X90.932Y-87.605
X90.932Y-92.685
X92.202Y-88.875
X92.202Y-91.415
T3
X73.152Y-88.24
X73.152Y-90.145
X73.152Y-92.05
X75.057Y-88.24
X75.057Y-90.145
X75.057Y-92.05
X76.962Y-88.24
X76.962Y-90.145
X76.962Y-92.05
X78.867Y-88.24
X78.867Y-90.145
X78.867Y-92.05
X80.772Y-88.24
X80.772Y-90.145
X80.772Y-92.05
X82.677Y-88.24
X82.677Y-90.145
X82.677Y-92.05
X84.582Y-88.24
X84.582Y-90.145
X84.582Y-92.05
X86.487Y-88.24
X86.487Y-90.145
X86.487Y-92.05
T4
X68.58Y-106.68
X73.66Y-106.68
X78.74Y-106.68
X83.82Y-106.68
X91.44Y-106.68
X99.06Y-106.68
X121.69Y-74.778
X121.69Y-77.572
X121.69Y-80.239
X121.69Y-83.033
X121.69Y-85.827
X121.69Y-88.621
X121.69Y-91.415
X121.69Y-94.082
X121.69Y-96.876
X121.69Y-99.67
X121.69Y-102.464
X121.69Y-105.131
X121.69Y-107.925
X121.69Y-110.719
X121.69Y-113.513
X121.69Y-116.307
X121.69Y-119.101
X121.69Y-121.768
X121.69Y-124.562
X124.484Y-76.048
X124.484Y-78.842
X124.484Y-81.636
X124.484Y-84.43
X124.484Y-87.224
X124.484Y-89.764
X124.484Y-92.685
X124.484Y-95.479
X124.484Y-98.273
X124.484Y-101.067
X124.484Y-103.734
X124.484Y-106.528
X124.484Y-109.322
X124.484Y-112.116
X124.484Y-114.91
X124.484Y-117.577
X124.484Y-120.371
X124.484Y-123.165
X130.023Y-74.93
X130.023Y-80.95
X132.563Y-74.93
X132.563Y-80.95
X147.98Y-74.778
X147.98Y-77.572
X147.98Y-80.239
X147.98Y-83.033
X147.98Y-85.827
X147.98Y-88.621
X147.98Y-91.415
X147.98Y-94.082
X147.98Y-96.876
X147.98Y-99.67
X147.98Y-102.464
X147.98Y-105.131
X147.98Y-107.925
X147.98Y-110.719
X147.98Y-113.513
X147.98Y-116.307
X147.98Y-119.101
X147.98Y-121.768
X147.98Y-124.562
X150.774Y-76.048
X150.774Y-78.842
X150.774Y-81.636
X150.774Y-84.43
X150.774Y-87.224
X150.774Y-89.764
X150.774Y-92.685
X150.774Y-95.479
X150.774Y-98.273
X150.774Y-101.067
X150.774Y-103.734
X150.774Y-106.528
X150.774Y-109.322
X150.774Y-112.116
X150.774Y-114.91
X150.774Y-117.577
X150.774Y-120.371
X150.774Y-123.165
X157.226Y-74.295
X157.302Y-80.518
X159.766Y-74.295
X159.842Y-80.518
X187.96Y-88.138
X187.96Y-90.932
X187.96Y-93.599
X187.96Y-96.393
X190.754Y-86.868
X190.754Y-89.535
X190.754Y-92.329
X190.754Y-94.996
X190.754Y-97.79
T5
X82.926Y-122.422
X82.926Y-127.922
X87.126Y-122.422
X87.126Y-127.922
T6
X114.351Y-110.719
X132.41Y-112.116
X142.011Y-110.719
X160.553Y-112.116
T7
X123.087Y-67.92
X123.087Y-131.42
X149.377Y-67.92
X149.377Y-131.42
X189.357Y-79.756
X189.357Y-104.775
T0
M30
