%FSLAX45Y45*%
G04 Gerber Fmt 4.5, Leading zero omitted, Abs format (unit mm)*
G04 Created by KiCad (PCBNEW 4.0.4-stable) date 01/23/17 14:00:05*
%MOMM*%
%LPD*%
G01*
G04 APERTURE LIST*
%ADD10C,0.127000*%
%ADD11C,0.025400*%
%ADD12C,0.200000*%
%ADD13C,0.300000*%
G04 APERTURE END LIST*
D10*
D11*
X22112000Y-2310000D02*
X4578000Y-2310000D01*
X22112000Y-14248000D02*
X22112000Y-2310000D01*
X4578000Y-14248000D02*
X22112000Y-14248000D01*
X4578000Y-2310000D02*
X4578000Y-14248000D01*
D12*
X6059170Y-3742690D02*
X6092190Y-3775710D01*
X6092190Y-3742690D02*
X6059170Y-3775710D01*
X6685740Y-6554140D02*
X6718760Y-6587160D01*
X6718760Y-6554140D02*
X6685740Y-6587160D01*
X6826758Y-4735830D02*
X6859778Y-4768850D01*
X6859778Y-4735830D02*
X6826758Y-4768850D01*
X6828790Y-3742690D02*
X6861810Y-3775710D01*
X6861810Y-3742690D02*
X6828790Y-3775710D01*
X6887210Y-6557010D02*
X6920230Y-6590030D01*
X6920230Y-6557010D02*
X6887210Y-6590030D01*
X6891690Y-4568070D02*
X6924710Y-4601090D01*
X6924710Y-4568070D02*
X6891690Y-4601090D01*
X7585710Y-3153410D02*
X7618730Y-3186430D01*
X7618730Y-3153410D02*
X7585710Y-3186430D01*
X8345170Y-3153410D02*
X8378190Y-3186430D01*
X8378190Y-3153410D02*
X8345170Y-3186430D01*
X9104630Y-3234690D02*
X9137650Y-3267710D01*
X9137650Y-3234690D02*
X9104630Y-3267710D01*
X9655810Y-6838950D02*
X9688830Y-6871970D01*
X9688830Y-6838950D02*
X9655810Y-6871970D01*
X9803130Y-6833870D02*
X9836150Y-6866890D01*
X9836150Y-6833870D02*
X9803130Y-6866890D01*
X9869170Y-3239770D02*
X9902190Y-3272790D01*
X9902190Y-3239770D02*
X9869170Y-3272790D01*
X9876790Y-5073650D02*
X9909810Y-5106670D01*
X9909810Y-5073650D02*
X9876790Y-5106670D01*
X9922510Y-6836410D02*
X9955530Y-6869430D01*
X9955530Y-6836410D02*
X9922510Y-6869430D01*
X10044430Y-6833870D02*
X10077450Y-6866890D01*
X10077450Y-6833870D02*
X10044430Y-6866890D01*
X10212070Y-6846570D02*
X10245090Y-6879590D01*
X10245090Y-6846570D02*
X10212070Y-6879590D01*
X10633710Y-3409950D02*
X10666730Y-3442970D01*
X10666730Y-3409950D02*
X10633710Y-3442970D01*
X11050270Y-5088890D02*
X11083290Y-5121910D01*
X11083290Y-5088890D02*
X11050270Y-5121910D01*
X11055350Y-5193030D02*
X11088370Y-5226050D01*
X11088370Y-5193030D02*
X11055350Y-5226050D01*
X11060430Y-5670550D02*
X11093450Y-5703570D01*
X11093450Y-5670550D02*
X11060430Y-5703570D01*
X11062970Y-5543550D02*
X11095990Y-5576570D01*
X11095990Y-5543550D02*
X11062970Y-5576570D01*
X11063606Y-5300983D02*
X11096626Y-5334003D01*
X11096626Y-5300983D02*
X11063606Y-5334003D01*
X11065510Y-5429250D02*
X11098530Y-5462270D01*
X11098530Y-5429250D02*
X11065510Y-5462270D01*
X11068050Y-5795010D02*
X11101070Y-5828030D01*
X11101070Y-5795010D02*
X11068050Y-5828030D01*
X11393170Y-3409950D02*
X11426190Y-3442970D01*
X11426190Y-3409950D02*
X11393170Y-3442970D01*
X13173710Y-4850130D02*
X13206730Y-4883150D01*
X13206730Y-4850130D02*
X13173710Y-4883150D01*
X13173710Y-5299710D02*
X13206730Y-5332730D01*
X13206730Y-5299710D02*
X13173710Y-5332730D01*
X13265150Y-4845050D02*
X13298170Y-4878070D01*
X13298170Y-4845050D02*
X13265150Y-4878070D01*
X13265150Y-5297170D02*
X13298170Y-5330190D01*
X13298170Y-5297170D02*
X13265150Y-5330190D01*
X13354050Y-5297170D02*
X13387070Y-5330190D01*
X13387070Y-5297170D02*
X13354050Y-5330190D01*
X13356590Y-4845050D02*
X13389610Y-4878070D01*
X13389610Y-4845050D02*
X13356590Y-4878070D01*
X13448030Y-4845050D02*
X13481050Y-4878070D01*
X13481050Y-4845050D02*
X13448030Y-4878070D01*
X13450570Y-5299710D02*
X13483590Y-5332730D01*
X13483590Y-5299710D02*
X13450570Y-5332730D01*
X13542010Y-4845050D02*
X13575030Y-4878070D01*
X13575030Y-4845050D02*
X13542010Y-4878070D01*
X13542010Y-5299710D02*
X13575030Y-5332730D01*
X13575030Y-5299710D02*
X13542010Y-5332730D01*
X13630910Y-4845050D02*
X13663930Y-4878070D01*
X13663930Y-4845050D02*
X13630910Y-4878070D01*
X13633450Y-5299710D02*
X13666470Y-5332730D01*
X13666470Y-5299710D02*
X13633450Y-5332730D01*
X13717270Y-5297170D02*
X13750290Y-5330190D01*
X13750290Y-5297170D02*
X13717270Y-5330190D01*
X13717270Y-4845050D02*
X13750290Y-4878070D01*
X13750290Y-4845050D02*
X13717270Y-4878070D01*
X13882370Y-9782810D02*
X13915390Y-9815830D01*
X13915390Y-9782810D02*
X13882370Y-9815830D01*
X13963650Y-9881870D02*
X13996670Y-9914890D01*
X13996670Y-9881870D02*
X13963650Y-9914890D01*
X14060170Y-9960610D02*
X14093190Y-9993630D01*
X14093190Y-9960610D02*
X14060170Y-9993630D01*
X14108430Y-6231890D02*
X14141450Y-6264910D01*
X14141450Y-6231890D02*
X14108430Y-6264910D01*
X14143990Y-10052049D02*
X14177010Y-10085069D01*
X14177010Y-10052049D02*
X14143990Y-10085069D01*
X14194291Y-6312800D02*
X14227311Y-6345820D01*
X14227311Y-6312800D02*
X14194291Y-6345820D01*
X14232890Y-10148570D02*
X14265910Y-10181590D01*
X14265910Y-10148570D02*
X14232890Y-10181590D01*
X14276070Y-6379210D02*
X14309090Y-6412230D01*
X14309090Y-6379210D02*
X14276070Y-6412230D01*
X14359890Y-6450330D02*
X14392910Y-6483350D01*
X14392910Y-6450330D02*
X14359890Y-6483350D01*
X14420236Y-6522762D02*
X14453256Y-6555782D01*
X14453256Y-6522762D02*
X14420236Y-6555782D01*
X16155670Y-6894830D02*
X16188690Y-6927850D01*
X16188690Y-6894830D02*
X16155670Y-6927850D01*
X16252190Y-6986270D02*
X16285210Y-7019290D01*
X16285210Y-6986270D02*
X16252190Y-7019290D01*
X16346170Y-7080250D02*
X16379190Y-7113270D01*
X16379190Y-7080250D02*
X16346170Y-7113270D01*
X16435070Y-7169150D02*
X16468090Y-7202170D01*
X16468090Y-7169150D02*
X16435070Y-7202170D01*
X16531590Y-7250430D02*
X16564610Y-7283450D01*
X16564610Y-7250430D02*
X16531590Y-7283450D01*
X16625570Y-7354570D02*
X16658590Y-7387590D01*
X16658590Y-7354570D02*
X16625570Y-7387590D01*
X16734790Y-3488690D02*
X16767810Y-3521710D01*
X16767810Y-3488690D02*
X16734790Y-3521710D01*
X16734790Y-7458710D02*
X16767810Y-7491730D01*
X16767810Y-7458710D02*
X16734790Y-7491730D01*
X17494250Y-3488690D02*
X17527270Y-3521710D01*
X17527270Y-3488690D02*
X17494250Y-3521710D01*
X18035270Y-4489450D02*
X18068290Y-4522470D01*
X18068290Y-4489450D02*
X18035270Y-4522470D01*
X18050510Y-5838190D02*
X18083530Y-5871210D01*
X18083530Y-5838190D02*
X18050510Y-5871210D01*
X18055590Y-5693410D02*
X18088610Y-5726430D01*
X18088610Y-5693410D02*
X18055590Y-5726430D01*
X18251170Y-3153410D02*
X18284190Y-3186430D01*
X18284190Y-3153410D02*
X18251170Y-3186430D01*
X19013170Y-3153410D02*
X19046190Y-3186430D01*
X19046190Y-3153410D02*
X19013170Y-3186430D01*
X19772630Y-3153410D02*
X19805650Y-3186430D01*
X19805650Y-3153410D02*
X19772630Y-3186430D01*
X20527010Y-3153410D02*
X20560030Y-3186430D01*
X20560030Y-3153410D02*
X20527010Y-3186430D01*
X9004935Y-8887460D02*
G75*
G03X9004935Y-8887460I-38735J0D01*
G01*
X9004935Y-9141460D02*
G75*
G03X9004935Y-9141460I-38735J0D01*
G01*
X9131935Y-8760460D02*
G75*
G03X9131935Y-8760460I-38735J0D01*
G01*
X9131935Y-9268460D02*
G75*
G03X9131935Y-9268460I-38735J0D01*
G01*
X9258935Y-8887460D02*
G75*
G03X9258935Y-8887460I-38735J0D01*
G01*
X9258935Y-9141460D02*
G75*
G03X9258935Y-9141460I-38735J0D01*
G01*
X7315200Y-8775065D02*
X7315200Y-8872855D01*
X7266305Y-8823960D02*
X7364095Y-8823960D01*
X7315200Y-8965565D02*
X7315200Y-9063355D01*
X7266305Y-9014460D02*
X7364095Y-9014460D01*
X7315200Y-9156065D02*
X7315200Y-9253855D01*
X7266305Y-9204960D02*
X7364095Y-9204960D01*
X7505700Y-8775065D02*
X7505700Y-8872855D01*
X7456805Y-8823960D02*
X7554595Y-8823960D01*
X7505700Y-8965565D02*
X7505700Y-9063355D01*
X7456805Y-9014460D02*
X7554595Y-9014460D01*
X7505700Y-9156065D02*
X7505700Y-9253855D01*
X7456805Y-9204960D02*
X7554595Y-9204960D01*
X7696200Y-8775065D02*
X7696200Y-8872855D01*
X7647305Y-8823960D02*
X7745095Y-8823960D01*
X7696200Y-8965565D02*
X7696200Y-9063355D01*
X7647305Y-9014460D02*
X7745095Y-9014460D01*
X7696200Y-9156065D02*
X7696200Y-9253855D01*
X7647305Y-9204960D02*
X7745095Y-9204960D01*
X7886700Y-8775065D02*
X7886700Y-8872855D01*
X7837805Y-8823960D02*
X7935595Y-8823960D01*
X7886700Y-8965565D02*
X7886700Y-9063355D01*
X7837805Y-9014460D02*
X7935595Y-9014460D01*
X7886700Y-9156065D02*
X7886700Y-9253855D01*
X7837805Y-9204960D02*
X7935595Y-9204960D01*
X8077200Y-8775065D02*
X8077200Y-8872855D01*
X8028305Y-8823960D02*
X8126095Y-8823960D01*
X8077200Y-8965565D02*
X8077200Y-9063355D01*
X8028305Y-9014460D02*
X8126095Y-9014460D01*
X8077200Y-9156065D02*
X8077200Y-9253855D01*
X8028305Y-9204960D02*
X8126095Y-9204960D01*
X8267700Y-8775065D02*
X8267700Y-8872855D01*
X8218805Y-8823960D02*
X8316595Y-8823960D01*
X8267700Y-8965565D02*
X8267700Y-9063355D01*
X8218805Y-9014460D02*
X8316595Y-9014460D01*
X8267700Y-9156065D02*
X8267700Y-9253855D01*
X8218805Y-9204960D02*
X8316595Y-9204960D01*
X8458200Y-8775065D02*
X8458200Y-8872855D01*
X8409305Y-8823960D02*
X8507095Y-8823960D01*
X8458200Y-8965565D02*
X8458200Y-9063355D01*
X8409305Y-9014460D02*
X8507095Y-9014460D01*
X8458200Y-9156065D02*
X8458200Y-9253855D01*
X8409305Y-9204960D02*
X8507095Y-9204960D01*
X8648700Y-8775065D02*
X8648700Y-8872855D01*
X8599805Y-8823960D02*
X8697595Y-8823960D01*
X8648700Y-8965565D02*
X8648700Y-9063355D01*
X8599805Y-9014460D02*
X8697595Y-9014460D01*
X8648700Y-9156065D02*
X8648700Y-9253855D01*
X8599805Y-9204960D02*
X8697595Y-9204960D01*
X6893921Y-10703921D02*
X6893921Y-10632079D01*
X6822079Y-10632079D01*
X6822079Y-10703921D01*
X6893921Y-10703921D01*
X7401921Y-10703921D02*
X7401921Y-10632079D01*
X7330079Y-10632079D01*
X7330079Y-10703921D01*
X7401921Y-10703921D01*
X7909921Y-10703921D02*
X7909921Y-10632079D01*
X7838079Y-10632079D01*
X7838079Y-10703921D01*
X7909921Y-10703921D01*
X8417921Y-10703921D02*
X8417921Y-10632079D01*
X8346079Y-10632079D01*
X8346079Y-10703921D01*
X8417921Y-10703921D01*
X9179921Y-10703921D02*
X9179921Y-10632079D01*
X9108079Y-10632079D01*
X9108079Y-10703921D01*
X9179921Y-10703921D01*
X9941921Y-10703921D02*
X9941921Y-10632079D01*
X9870079Y-10632079D01*
X9870079Y-10703921D01*
X9941921Y-10703921D01*
X12204931Y-7513681D02*
X12204931Y-7441839D01*
X12133089Y-7441839D01*
X12133089Y-7513681D01*
X12204931Y-7513681D01*
X12204931Y-7793081D02*
X12204931Y-7721239D01*
X12133089Y-7721239D01*
X12133089Y-7793081D01*
X12204931Y-7793081D01*
X12204931Y-8059781D02*
X12204931Y-7987939D01*
X12133089Y-7987939D01*
X12133089Y-8059781D01*
X12204931Y-8059781D01*
X12204931Y-8339181D02*
X12204931Y-8267339D01*
X12133089Y-8267339D01*
X12133089Y-8339181D01*
X12204931Y-8339181D01*
X12204931Y-8618581D02*
X12204931Y-8546739D01*
X12133089Y-8546739D01*
X12133089Y-8618581D01*
X12204931Y-8618581D01*
X12204931Y-8897981D02*
X12204931Y-8826139D01*
X12133089Y-8826139D01*
X12133089Y-8897981D01*
X12204931Y-8897981D01*
X12204931Y-9177381D02*
X12204931Y-9105539D01*
X12133089Y-9105539D01*
X12133089Y-9177381D01*
X12204931Y-9177381D01*
X12204931Y-9444081D02*
X12204931Y-9372239D01*
X12133089Y-9372239D01*
X12133089Y-9444081D01*
X12204931Y-9444081D01*
X12204931Y-9723481D02*
X12204931Y-9651639D01*
X12133089Y-9651639D01*
X12133089Y-9723481D01*
X12204931Y-9723481D01*
X12204931Y-10002881D02*
X12204931Y-9931039D01*
X12133089Y-9931039D01*
X12133089Y-10002881D01*
X12204931Y-10002881D01*
X12204931Y-10282281D02*
X12204931Y-10210439D01*
X12133089Y-10210439D01*
X12133089Y-10282281D01*
X12204931Y-10282281D01*
X12204931Y-10548981D02*
X12204931Y-10477139D01*
X12133089Y-10477139D01*
X12133089Y-10548981D01*
X12204931Y-10548981D01*
X12204931Y-10828381D02*
X12204931Y-10756539D01*
X12133089Y-10756539D01*
X12133089Y-10828381D01*
X12204931Y-10828381D01*
X12204931Y-11107781D02*
X12204931Y-11035939D01*
X12133089Y-11035939D01*
X12133089Y-11107781D01*
X12204931Y-11107781D01*
X12204931Y-11387181D02*
X12204931Y-11315339D01*
X12133089Y-11315339D01*
X12133089Y-11387181D01*
X12204931Y-11387181D01*
X12204931Y-11666581D02*
X12204931Y-11594739D01*
X12133089Y-11594739D01*
X12133089Y-11666581D01*
X12204931Y-11666581D01*
X12204931Y-11945981D02*
X12204931Y-11874139D01*
X12133089Y-11874139D01*
X12133089Y-11945981D01*
X12204931Y-11945981D01*
X12204931Y-12212681D02*
X12204931Y-12140839D01*
X12133089Y-12140839D01*
X12133089Y-12212681D01*
X12204931Y-12212681D01*
X12204931Y-12492081D02*
X12204931Y-12420239D01*
X12133089Y-12420239D01*
X12133089Y-12492081D01*
X12204931Y-12492081D01*
X12484331Y-7640681D02*
X12484331Y-7568839D01*
X12412489Y-7568839D01*
X12412489Y-7640681D01*
X12484331Y-7640681D01*
X12484331Y-7920081D02*
X12484331Y-7848239D01*
X12412489Y-7848239D01*
X12412489Y-7920081D01*
X12484331Y-7920081D01*
X12484331Y-8199481D02*
X12484331Y-8127639D01*
X12412489Y-8127639D01*
X12412489Y-8199481D01*
X12484331Y-8199481D01*
X12484331Y-8478881D02*
X12484331Y-8407039D01*
X12412489Y-8407039D01*
X12412489Y-8478881D01*
X12484331Y-8478881D01*
X12484331Y-8758281D02*
X12484331Y-8686439D01*
X12412489Y-8686439D01*
X12412489Y-8758281D01*
X12484331Y-8758281D01*
X12484331Y-9012281D02*
X12484331Y-8940439D01*
X12412489Y-8940439D01*
X12412489Y-9012281D01*
X12484331Y-9012281D01*
X12484331Y-9304381D02*
X12484331Y-9232539D01*
X12412489Y-9232539D01*
X12412489Y-9304381D01*
X12484331Y-9304381D01*
X12484331Y-9583781D02*
X12484331Y-9511939D01*
X12412489Y-9511939D01*
X12412489Y-9583781D01*
X12484331Y-9583781D01*
X12484331Y-9863181D02*
X12484331Y-9791339D01*
X12412489Y-9791339D01*
X12412489Y-9863181D01*
X12484331Y-9863181D01*
X12484331Y-10142581D02*
X12484331Y-10070739D01*
X12412489Y-10070739D01*
X12412489Y-10142581D01*
X12484331Y-10142581D01*
X12484331Y-10409281D02*
X12484331Y-10337439D01*
X12412489Y-10337439D01*
X12412489Y-10409281D01*
X12484331Y-10409281D01*
X12484331Y-10688681D02*
X12484331Y-10616839D01*
X12412489Y-10616839D01*
X12412489Y-10688681D01*
X12484331Y-10688681D01*
X12484331Y-10968081D02*
X12484331Y-10896239D01*
X12412489Y-10896239D01*
X12412489Y-10968081D01*
X12484331Y-10968081D01*
X12484331Y-11247481D02*
X12484331Y-11175639D01*
X12412489Y-11175639D01*
X12412489Y-11247481D01*
X12484331Y-11247481D01*
X12484331Y-11526881D02*
X12484331Y-11455039D01*
X12412489Y-11455039D01*
X12412489Y-11526881D01*
X12484331Y-11526881D01*
X12484331Y-11793581D02*
X12484331Y-11721739D01*
X12412489Y-11721739D01*
X12412489Y-11793581D01*
X12484331Y-11793581D01*
X12484331Y-12072981D02*
X12484331Y-12001139D01*
X12412489Y-12001139D01*
X12412489Y-12072981D01*
X12484331Y-12072981D01*
X12484331Y-12352381D02*
X12484331Y-12280539D01*
X12412489Y-12280539D01*
X12412489Y-12352381D01*
X12484331Y-12352381D01*
X13038181Y-7528921D02*
X13038181Y-7457079D01*
X12966339Y-7457079D01*
X12966339Y-7528921D01*
X13038181Y-7528921D01*
X13038181Y-8130901D02*
X13038181Y-8059059D01*
X12966339Y-8059059D01*
X12966339Y-8130901D01*
X13038181Y-8130901D01*
X13292181Y-7528921D02*
X13292181Y-7457079D01*
X13220339Y-7457079D01*
X13220339Y-7528921D01*
X13292181Y-7528921D01*
X13292181Y-8130901D02*
X13292181Y-8059059D01*
X13220339Y-8059059D01*
X13220339Y-8130901D01*
X13292181Y-8130901D01*
X14833961Y-7513681D02*
X14833961Y-7441839D01*
X14762119Y-7441839D01*
X14762119Y-7513681D01*
X14833961Y-7513681D01*
X14833961Y-7793081D02*
X14833961Y-7721239D01*
X14762119Y-7721239D01*
X14762119Y-7793081D01*
X14833961Y-7793081D01*
X14833961Y-8059781D02*
X14833961Y-7987939D01*
X14762119Y-7987939D01*
X14762119Y-8059781D01*
X14833961Y-8059781D01*
X14833961Y-8339181D02*
X14833961Y-8267339D01*
X14762119Y-8267339D01*
X14762119Y-8339181D01*
X14833961Y-8339181D01*
X14833961Y-8618581D02*
X14833961Y-8546739D01*
X14762119Y-8546739D01*
X14762119Y-8618581D01*
X14833961Y-8618581D01*
X14833961Y-8897981D02*
X14833961Y-8826139D01*
X14762119Y-8826139D01*
X14762119Y-8897981D01*
X14833961Y-8897981D01*
X14833961Y-9177381D02*
X14833961Y-9105539D01*
X14762119Y-9105539D01*
X14762119Y-9177381D01*
X14833961Y-9177381D01*
X14833961Y-9444081D02*
X14833961Y-9372239D01*
X14762119Y-9372239D01*
X14762119Y-9444081D01*
X14833961Y-9444081D01*
X14833961Y-9723481D02*
X14833961Y-9651639D01*
X14762119Y-9651639D01*
X14762119Y-9723481D01*
X14833961Y-9723481D01*
X14833961Y-10002881D02*
X14833961Y-9931039D01*
X14762119Y-9931039D01*
X14762119Y-10002881D01*
X14833961Y-10002881D01*
X14833961Y-10282281D02*
X14833961Y-10210439D01*
X14762119Y-10210439D01*
X14762119Y-10282281D01*
X14833961Y-10282281D01*
X14833961Y-10548981D02*
X14833961Y-10477139D01*
X14762119Y-10477139D01*
X14762119Y-10548981D01*
X14833961Y-10548981D01*
X14833961Y-10828381D02*
X14833961Y-10756539D01*
X14762119Y-10756539D01*
X14762119Y-10828381D01*
X14833961Y-10828381D01*
X14833961Y-11107781D02*
X14833961Y-11035939D01*
X14762119Y-11035939D01*
X14762119Y-11107781D01*
X14833961Y-11107781D01*
X14833961Y-11387181D02*
X14833961Y-11315339D01*
X14762119Y-11315339D01*
X14762119Y-11387181D01*
X14833961Y-11387181D01*
X14833961Y-11666581D02*
X14833961Y-11594739D01*
X14762119Y-11594739D01*
X14762119Y-11666581D01*
X14833961Y-11666581D01*
X14833961Y-11945981D02*
X14833961Y-11874139D01*
X14762119Y-11874139D01*
X14762119Y-11945981D01*
X14833961Y-11945981D01*
X14833961Y-12212681D02*
X14833961Y-12140839D01*
X14762119Y-12140839D01*
X14762119Y-12212681D01*
X14833961Y-12212681D01*
X14833961Y-12492081D02*
X14833961Y-12420239D01*
X14762119Y-12420239D01*
X14762119Y-12492081D01*
X14833961Y-12492081D01*
X15113361Y-7640681D02*
X15113361Y-7568839D01*
X15041519Y-7568839D01*
X15041519Y-7640681D01*
X15113361Y-7640681D01*
X15113361Y-7920081D02*
X15113361Y-7848239D01*
X15041519Y-7848239D01*
X15041519Y-7920081D01*
X15113361Y-7920081D01*
X15113361Y-8199481D02*
X15113361Y-8127639D01*
X15041519Y-8127639D01*
X15041519Y-8199481D01*
X15113361Y-8199481D01*
X15113361Y-8478881D02*
X15113361Y-8407039D01*
X15041519Y-8407039D01*
X15041519Y-8478881D01*
X15113361Y-8478881D01*
X15113361Y-8758281D02*
X15113361Y-8686439D01*
X15041519Y-8686439D01*
X15041519Y-8758281D01*
X15113361Y-8758281D01*
X15113361Y-9012281D02*
X15113361Y-8940439D01*
X15041519Y-8940439D01*
X15041519Y-9012281D01*
X15113361Y-9012281D01*
X15113361Y-9304381D02*
X15113361Y-9232539D01*
X15041519Y-9232539D01*
X15041519Y-9304381D01*
X15113361Y-9304381D01*
X15113361Y-9583781D02*
X15113361Y-9511939D01*
X15041519Y-9511939D01*
X15041519Y-9583781D01*
X15113361Y-9583781D01*
X15113361Y-9863181D02*
X15113361Y-9791339D01*
X15041519Y-9791339D01*
X15041519Y-9863181D01*
X15113361Y-9863181D01*
X15113361Y-10142581D02*
X15113361Y-10070739D01*
X15041519Y-10070739D01*
X15041519Y-10142581D01*
X15113361Y-10142581D01*
X15113361Y-10409281D02*
X15113361Y-10337439D01*
X15041519Y-10337439D01*
X15041519Y-10409281D01*
X15113361Y-10409281D01*
X15113361Y-10688681D02*
X15113361Y-10616839D01*
X15041519Y-10616839D01*
X15041519Y-10688681D01*
X15113361Y-10688681D01*
X15113361Y-10968081D02*
X15113361Y-10896239D01*
X15041519Y-10896239D01*
X15041519Y-10968081D01*
X15113361Y-10968081D01*
X15113361Y-11247481D02*
X15113361Y-11175639D01*
X15041519Y-11175639D01*
X15041519Y-11247481D01*
X15113361Y-11247481D01*
X15113361Y-11526881D02*
X15113361Y-11455039D01*
X15041519Y-11455039D01*
X15041519Y-11526881D01*
X15113361Y-11526881D01*
X15113361Y-11793581D02*
X15113361Y-11721739D01*
X15041519Y-11721739D01*
X15041519Y-11793581D01*
X15113361Y-11793581D01*
X15113361Y-12072981D02*
X15113361Y-12001139D01*
X15041519Y-12001139D01*
X15041519Y-12072981D01*
X15113361Y-12072981D01*
X15113361Y-12352381D02*
X15113361Y-12280539D01*
X15041519Y-12280539D01*
X15041519Y-12352381D01*
X15113361Y-12352381D01*
X15758521Y-7465421D02*
X15758521Y-7393579D01*
X15686679Y-7393579D01*
X15686679Y-7465421D01*
X15758521Y-7465421D01*
X15766141Y-8087721D02*
X15766141Y-8015879D01*
X15694299Y-8015879D01*
X15694299Y-8087721D01*
X15766141Y-8087721D01*
X16012521Y-7465421D02*
X16012521Y-7393579D01*
X15940679Y-7393579D01*
X15940679Y-7465421D01*
X16012521Y-7465421D01*
X16020141Y-8087721D02*
X16020141Y-8015879D01*
X15948299Y-8015879D01*
X15948299Y-8087721D01*
X16020141Y-8087721D01*
X18831921Y-8849721D02*
X18831921Y-8777879D01*
X18760079Y-8777879D01*
X18760079Y-8849721D01*
X18831921Y-8849721D01*
X18831921Y-9129121D02*
X18831921Y-9057279D01*
X18760079Y-9057279D01*
X18760079Y-9129121D01*
X18831921Y-9129121D01*
X18831921Y-9395821D02*
X18831921Y-9323979D01*
X18760079Y-9323979D01*
X18760079Y-9395821D01*
X18831921Y-9395821D01*
X18831921Y-9675221D02*
X18831921Y-9603379D01*
X18760079Y-9603379D01*
X18760079Y-9675221D01*
X18831921Y-9675221D01*
X19111321Y-8722721D02*
X19111321Y-8650879D01*
X19039479Y-8650879D01*
X19039479Y-8722721D01*
X19111321Y-8722721D01*
X19111321Y-8989421D02*
X19111321Y-8917579D01*
X19039479Y-8917579D01*
X19039479Y-8989421D01*
X19111321Y-8989421D01*
X19111321Y-9268821D02*
X19111321Y-9196979D01*
X19039479Y-9196979D01*
X19039479Y-9268821D01*
X19111321Y-9268821D01*
X19111321Y-9535521D02*
X19111321Y-9463679D01*
X19039479Y-9463679D01*
X19039479Y-9535521D01*
X19111321Y-9535521D01*
X19111321Y-9814921D02*
X19111321Y-9743079D01*
X19039479Y-9743079D01*
X19039479Y-9814921D01*
X19111321Y-9814921D01*
X8292590Y-12312200D02*
X8362590Y-12242200D01*
X8292590Y-12172200D01*
X8222590Y-12242200D01*
X8292590Y-12312200D01*
X8292590Y-12862200D02*
X8362590Y-12792200D01*
X8292590Y-12722200D01*
X8222590Y-12792200D01*
X8292590Y-12862200D01*
X8712590Y-12312200D02*
X8782590Y-12242200D01*
X8712590Y-12172200D01*
X8642590Y-12242200D01*
X8712590Y-12312200D01*
X8712590Y-12862200D02*
X8782590Y-12792200D01*
X8712590Y-12722200D01*
X8642590Y-12792200D01*
X8712590Y-12862200D01*
X11360023Y-10996803D02*
X11510137Y-11146917D01*
X11510137Y-10996803D02*
X11360023Y-11146917D01*
X11510137Y-11071860D02*
G75*
G03X11510137Y-11071860I-75057J0D01*
G01*
X13165963Y-11136503D02*
X13316077Y-11286617D01*
X13316077Y-11136503D02*
X13165963Y-11286617D01*
X13316077Y-11211560D02*
G75*
G03X13316077Y-11211560I-75057J0D01*
G01*
X14126083Y-10996803D02*
X14276197Y-11146917D01*
X14276197Y-10996803D02*
X14126083Y-11146917D01*
X14276197Y-11071860D02*
G75*
G03X14276197Y-11071860I-75057J0D01*
G01*
X15980283Y-11136503D02*
X16130397Y-11286617D01*
X16130397Y-11136503D02*
X15980283Y-11286617D01*
X16130397Y-11211560D02*
G75*
G03X16130397Y-11211560I-75057J0D01*
G01*
X12156310Y-6639560D02*
X12461110Y-6944360D01*
X12461110Y-6639560D02*
X12156310Y-6944360D01*
X12308710Y-6639560D02*
X12308710Y-6944360D01*
X12156310Y-6791960D02*
X12461110Y-6791960D01*
X12156310Y-12989560D02*
X12461110Y-13294360D01*
X12461110Y-12989560D02*
X12156310Y-13294360D01*
X12308710Y-12989560D02*
X12308710Y-13294360D01*
X12156310Y-13141960D02*
X12461110Y-13141960D01*
X14785340Y-6639560D02*
X15090140Y-6944360D01*
X15090140Y-6639560D02*
X14785340Y-6944360D01*
X14937740Y-6639560D02*
X14937740Y-6944360D01*
X14785340Y-6791960D02*
X15090140Y-6791960D01*
X14785340Y-12989560D02*
X15090140Y-13294360D01*
X15090140Y-12989560D02*
X14785340Y-13294360D01*
X14937740Y-12989560D02*
X14937740Y-13294360D01*
X14785340Y-13141960D02*
X15090140Y-13141960D01*
X18783300Y-7823200D02*
X19088100Y-8128000D01*
X19088100Y-7823200D02*
X18783300Y-8128000D01*
X18935700Y-7823200D02*
X18935700Y-8128000D01*
X18783300Y-7975600D02*
X19088100Y-7975600D01*
X18783300Y-10325100D02*
X19088100Y-10629900D01*
X19088100Y-10325100D02*
X18783300Y-10629900D01*
X18935700Y-10325100D02*
X18935700Y-10629900D01*
X18783300Y-10477500D02*
X19088100Y-10477500D01*
D13*
X4848159Y-14714984D02*
X4848159Y-14414984D01*
X4919587Y-14414984D01*
X4962444Y-14429270D01*
X4991016Y-14457841D01*
X5005301Y-14486413D01*
X5019587Y-14543556D01*
X5019587Y-14586413D01*
X5005301Y-14643556D01*
X4991016Y-14672127D01*
X4962444Y-14700699D01*
X4919587Y-14714984D01*
X4848159Y-14714984D01*
X5148159Y-14714984D02*
X5148159Y-14514984D01*
X5148159Y-14572127D02*
X5162444Y-14543556D01*
X5176730Y-14529270D01*
X5205301Y-14514984D01*
X5233873Y-14514984D01*
X5333873Y-14714984D02*
X5333873Y-14514984D01*
X5333873Y-14414984D02*
X5319587Y-14429270D01*
X5333873Y-14443556D01*
X5348159Y-14429270D01*
X5333873Y-14414984D01*
X5333873Y-14443556D01*
X5519587Y-14714984D02*
X5491016Y-14700699D01*
X5476730Y-14672127D01*
X5476730Y-14414984D01*
X5676730Y-14714984D02*
X5648158Y-14700699D01*
X5633873Y-14672127D01*
X5633873Y-14414984D01*
X6019587Y-14714984D02*
X6019587Y-14414984D01*
X6119587Y-14629270D01*
X6219587Y-14414984D01*
X6219587Y-14714984D01*
X6491016Y-14714984D02*
X6491016Y-14557841D01*
X6476730Y-14529270D01*
X6448158Y-14514984D01*
X6391016Y-14514984D01*
X6362444Y-14529270D01*
X6491016Y-14700699D02*
X6462444Y-14714984D01*
X6391016Y-14714984D01*
X6362444Y-14700699D01*
X6348158Y-14672127D01*
X6348158Y-14643556D01*
X6362444Y-14614984D01*
X6391016Y-14600699D01*
X6462444Y-14600699D01*
X6491016Y-14586413D01*
X6633873Y-14514984D02*
X6633873Y-14814984D01*
X6633873Y-14529270D02*
X6662444Y-14514984D01*
X6719587Y-14514984D01*
X6748158Y-14529270D01*
X6762444Y-14543556D01*
X6776730Y-14572127D01*
X6776730Y-14657841D01*
X6762444Y-14686413D01*
X6748158Y-14700699D01*
X6719587Y-14714984D01*
X6662444Y-14714984D01*
X6633873Y-14700699D01*
X6905301Y-14686413D02*
X6919587Y-14700699D01*
X6905301Y-14714984D01*
X6891016Y-14700699D01*
X6905301Y-14686413D01*
X6905301Y-14714984D01*
X6905301Y-14529270D02*
X6919587Y-14543556D01*
X6905301Y-14557841D01*
X6891016Y-14543556D01*
X6905301Y-14529270D01*
X6905301Y-14557841D01*
X4543710Y-15192760D02*
X4576730Y-15225780D01*
X4576730Y-15192760D02*
X4543710Y-15225780D01*
X4905301Y-15044984D02*
X4933873Y-15044984D01*
X4962444Y-15059270D01*
X4976730Y-15073556D01*
X4991016Y-15102127D01*
X5005301Y-15159270D01*
X5005301Y-15230699D01*
X4991016Y-15287841D01*
X4976730Y-15316413D01*
X4962444Y-15330699D01*
X4933873Y-15344984D01*
X4905301Y-15344984D01*
X4876730Y-15330699D01*
X4862444Y-15316413D01*
X4848159Y-15287841D01*
X4833873Y-15230699D01*
X4833873Y-15159270D01*
X4848159Y-15102127D01*
X4862444Y-15073556D01*
X4876730Y-15059270D01*
X4905301Y-15044984D01*
X5133873Y-15316413D02*
X5148159Y-15330699D01*
X5133873Y-15344984D01*
X5119587Y-15330699D01*
X5133873Y-15316413D01*
X5133873Y-15344984D01*
X5248158Y-15044984D02*
X5433873Y-15044984D01*
X5333873Y-15159270D01*
X5376730Y-15159270D01*
X5405301Y-15173556D01*
X5419587Y-15187841D01*
X5433873Y-15216413D01*
X5433873Y-15287841D01*
X5419587Y-15316413D01*
X5405301Y-15330699D01*
X5376730Y-15344984D01*
X5291016Y-15344984D01*
X5262444Y-15330699D01*
X5248158Y-15316413D01*
X5533873Y-15044984D02*
X5719587Y-15044984D01*
X5619587Y-15159270D01*
X5662444Y-15159270D01*
X5691016Y-15173556D01*
X5705301Y-15187841D01*
X5719587Y-15216413D01*
X5719587Y-15287841D01*
X5705301Y-15316413D01*
X5691016Y-15330699D01*
X5662444Y-15344984D01*
X5576730Y-15344984D01*
X5548159Y-15330699D01*
X5533873Y-15316413D01*
X5848158Y-15344984D02*
X5848158Y-15144984D01*
X5848158Y-15173556D02*
X5862444Y-15159270D01*
X5891016Y-15144984D01*
X5933873Y-15144984D01*
X5962444Y-15159270D01*
X5976730Y-15187841D01*
X5976730Y-15344984D01*
X5976730Y-15187841D02*
X5991016Y-15159270D01*
X6019587Y-15144984D01*
X6062444Y-15144984D01*
X6091016Y-15159270D01*
X6105301Y-15187841D01*
X6105301Y-15344984D01*
X6248158Y-15344984D02*
X6248158Y-15144984D01*
X6248158Y-15173556D02*
X6262444Y-15159270D01*
X6291016Y-15144984D01*
X6333873Y-15144984D01*
X6362444Y-15159270D01*
X6376730Y-15187841D01*
X6376730Y-15344984D01*
X6376730Y-15187841D02*
X6391016Y-15159270D01*
X6419587Y-15144984D01*
X6462444Y-15144984D01*
X6491016Y-15159270D01*
X6505301Y-15187841D01*
X6505301Y-15344984D01*
X7091016Y-15030699D02*
X6833873Y-15416413D01*
X7476730Y-15044984D02*
X7505301Y-15044984D01*
X7533873Y-15059270D01*
X7548158Y-15073556D01*
X7562444Y-15102127D01*
X7576730Y-15159270D01*
X7576730Y-15230699D01*
X7562444Y-15287841D01*
X7548158Y-15316413D01*
X7533873Y-15330699D01*
X7505301Y-15344984D01*
X7476730Y-15344984D01*
X7448158Y-15330699D01*
X7433873Y-15316413D01*
X7419587Y-15287841D01*
X7405301Y-15230699D01*
X7405301Y-15159270D01*
X7419587Y-15102127D01*
X7433873Y-15073556D01*
X7448158Y-15059270D01*
X7476730Y-15044984D01*
X7705301Y-15316413D02*
X7719587Y-15330699D01*
X7705301Y-15344984D01*
X7691016Y-15330699D01*
X7705301Y-15316413D01*
X7705301Y-15344984D01*
X7905301Y-15044984D02*
X7933873Y-15044984D01*
X7962444Y-15059270D01*
X7976730Y-15073556D01*
X7991015Y-15102127D01*
X8005301Y-15159270D01*
X8005301Y-15230699D01*
X7991015Y-15287841D01*
X7976730Y-15316413D01*
X7962444Y-15330699D01*
X7933873Y-15344984D01*
X7905301Y-15344984D01*
X7876730Y-15330699D01*
X7862444Y-15316413D01*
X7848158Y-15287841D01*
X7833873Y-15230699D01*
X7833873Y-15159270D01*
X7848158Y-15102127D01*
X7862444Y-15073556D01*
X7876730Y-15059270D01*
X7905301Y-15044984D01*
X8291015Y-15344984D02*
X8119587Y-15344984D01*
X8205301Y-15344984D02*
X8205301Y-15044984D01*
X8176730Y-15087841D01*
X8148158Y-15116413D01*
X8119587Y-15130699D01*
X8391016Y-15044984D02*
X8576730Y-15044984D01*
X8476730Y-15159270D01*
X8519587Y-15159270D01*
X8548158Y-15173556D01*
X8562444Y-15187841D01*
X8576730Y-15216413D01*
X8576730Y-15287841D01*
X8562444Y-15316413D01*
X8548158Y-15330699D01*
X8519587Y-15344984D01*
X8433873Y-15344984D01*
X8405301Y-15330699D01*
X8391016Y-15316413D01*
X8691016Y-15044984D02*
X8691016Y-15102127D01*
X8805301Y-15044984D02*
X8805301Y-15102127D01*
X9248158Y-15459270D02*
X9233873Y-15444984D01*
X9205301Y-15402127D01*
X9191016Y-15373556D01*
X9176730Y-15330699D01*
X9162444Y-15259270D01*
X9162444Y-15202127D01*
X9176730Y-15130699D01*
X9191016Y-15087841D01*
X9205301Y-15059270D01*
X9233873Y-15016413D01*
X9248158Y-15002127D01*
X9491016Y-15044984D02*
X9433873Y-15044984D01*
X9405301Y-15059270D01*
X9391016Y-15073556D01*
X9362444Y-15116413D01*
X9348158Y-15173556D01*
X9348158Y-15287841D01*
X9362444Y-15316413D01*
X9376730Y-15330699D01*
X9405301Y-15344984D01*
X9462444Y-15344984D01*
X9491016Y-15330699D01*
X9505301Y-15316413D01*
X9519587Y-15287841D01*
X9519587Y-15216413D01*
X9505301Y-15187841D01*
X9491016Y-15173556D01*
X9462444Y-15159270D01*
X9405301Y-15159270D01*
X9376730Y-15173556D01*
X9362444Y-15187841D01*
X9348158Y-15216413D01*
X9791016Y-15044984D02*
X9648158Y-15044984D01*
X9633873Y-15187841D01*
X9648158Y-15173556D01*
X9676730Y-15159270D01*
X9748158Y-15159270D01*
X9776730Y-15173556D01*
X9791016Y-15187841D01*
X9805301Y-15216413D01*
X9805301Y-15287841D01*
X9791016Y-15316413D01*
X9776730Y-15330699D01*
X9748158Y-15344984D01*
X9676730Y-15344984D01*
X9648158Y-15330699D01*
X9633873Y-15316413D01*
X10162444Y-15344984D02*
X10162444Y-15044984D01*
X10291016Y-15344984D02*
X10291016Y-15187841D01*
X10276730Y-15159270D01*
X10248158Y-15144984D01*
X10205301Y-15144984D01*
X10176730Y-15159270D01*
X10162444Y-15173556D01*
X10476730Y-15344984D02*
X10448158Y-15330699D01*
X10433873Y-15316413D01*
X10419587Y-15287841D01*
X10419587Y-15202127D01*
X10433873Y-15173556D01*
X10448158Y-15159270D01*
X10476730Y-15144984D01*
X10519587Y-15144984D01*
X10548158Y-15159270D01*
X10562444Y-15173556D01*
X10576730Y-15202127D01*
X10576730Y-15287841D01*
X10562444Y-15316413D01*
X10548158Y-15330699D01*
X10519587Y-15344984D01*
X10476730Y-15344984D01*
X10748158Y-15344984D02*
X10719587Y-15330699D01*
X10705301Y-15302127D01*
X10705301Y-15044984D01*
X10976730Y-15330699D02*
X10948159Y-15344984D01*
X10891016Y-15344984D01*
X10862444Y-15330699D01*
X10848159Y-15302127D01*
X10848159Y-15187841D01*
X10862444Y-15159270D01*
X10891016Y-15144984D01*
X10948159Y-15144984D01*
X10976730Y-15159270D01*
X10991016Y-15187841D01*
X10991016Y-15216413D01*
X10848159Y-15244984D01*
X11105301Y-15330699D02*
X11133873Y-15344984D01*
X11191016Y-15344984D01*
X11219587Y-15330699D01*
X11233873Y-15302127D01*
X11233873Y-15287841D01*
X11219587Y-15259270D01*
X11191016Y-15244984D01*
X11148159Y-15244984D01*
X11119587Y-15230699D01*
X11105301Y-15202127D01*
X11105301Y-15187841D01*
X11119587Y-15159270D01*
X11148159Y-15144984D01*
X11191016Y-15144984D01*
X11219587Y-15159270D01*
X11333873Y-15459270D02*
X11348158Y-15444984D01*
X11376730Y-15402127D01*
X11391016Y-15373556D01*
X11405301Y-15330699D01*
X11419587Y-15259270D01*
X11419587Y-15202127D01*
X11405301Y-15130699D01*
X11391016Y-15087841D01*
X11376730Y-15059270D01*
X11348158Y-15016413D01*
X11333873Y-15002127D01*
X4576730Y-15605270D02*
G75*
G03X4576730Y-15605270I-38735J0D01*
G01*
X4905301Y-15440984D02*
X4933873Y-15440984D01*
X4962444Y-15455270D01*
X4976730Y-15469556D01*
X4991016Y-15498127D01*
X5005301Y-15555270D01*
X5005301Y-15626699D01*
X4991016Y-15683841D01*
X4976730Y-15712413D01*
X4962444Y-15726699D01*
X4933873Y-15740984D01*
X4905301Y-15740984D01*
X4876730Y-15726699D01*
X4862444Y-15712413D01*
X4848159Y-15683841D01*
X4833873Y-15626699D01*
X4833873Y-15555270D01*
X4848159Y-15498127D01*
X4862444Y-15469556D01*
X4876730Y-15455270D01*
X4905301Y-15440984D01*
X5133873Y-15712413D02*
X5148159Y-15726699D01*
X5133873Y-15740984D01*
X5119587Y-15726699D01*
X5133873Y-15712413D01*
X5133873Y-15740984D01*
X5248158Y-15440984D02*
X5448158Y-15440984D01*
X5319587Y-15740984D01*
X5533873Y-15440984D02*
X5733873Y-15440984D01*
X5605301Y-15740984D01*
X5848158Y-15740984D02*
X5848158Y-15540984D01*
X5848158Y-15569556D02*
X5862444Y-15555270D01*
X5891016Y-15540984D01*
X5933873Y-15540984D01*
X5962444Y-15555270D01*
X5976730Y-15583841D01*
X5976730Y-15740984D01*
X5976730Y-15583841D02*
X5991016Y-15555270D01*
X6019587Y-15540984D01*
X6062444Y-15540984D01*
X6091016Y-15555270D01*
X6105301Y-15583841D01*
X6105301Y-15740984D01*
X6248158Y-15740984D02*
X6248158Y-15540984D01*
X6248158Y-15569556D02*
X6262444Y-15555270D01*
X6291016Y-15540984D01*
X6333873Y-15540984D01*
X6362444Y-15555270D01*
X6376730Y-15583841D01*
X6376730Y-15740984D01*
X6376730Y-15583841D02*
X6391016Y-15555270D01*
X6419587Y-15540984D01*
X6462444Y-15540984D01*
X6491016Y-15555270D01*
X6505301Y-15583841D01*
X6505301Y-15740984D01*
X7091016Y-15426699D02*
X6833873Y-15812413D01*
X7476730Y-15440984D02*
X7505301Y-15440984D01*
X7533873Y-15455270D01*
X7548158Y-15469556D01*
X7562444Y-15498127D01*
X7576730Y-15555270D01*
X7576730Y-15626699D01*
X7562444Y-15683841D01*
X7548158Y-15712413D01*
X7533873Y-15726699D01*
X7505301Y-15740984D01*
X7476730Y-15740984D01*
X7448158Y-15726699D01*
X7433873Y-15712413D01*
X7419587Y-15683841D01*
X7405301Y-15626699D01*
X7405301Y-15555270D01*
X7419587Y-15498127D01*
X7433873Y-15469556D01*
X7448158Y-15455270D01*
X7476730Y-15440984D01*
X7705301Y-15712413D02*
X7719587Y-15726699D01*
X7705301Y-15740984D01*
X7691016Y-15726699D01*
X7705301Y-15712413D01*
X7705301Y-15740984D01*
X7905301Y-15440984D02*
X7933873Y-15440984D01*
X7962444Y-15455270D01*
X7976730Y-15469556D01*
X7991015Y-15498127D01*
X8005301Y-15555270D01*
X8005301Y-15626699D01*
X7991015Y-15683841D01*
X7976730Y-15712413D01*
X7962444Y-15726699D01*
X7933873Y-15740984D01*
X7905301Y-15740984D01*
X7876730Y-15726699D01*
X7862444Y-15712413D01*
X7848158Y-15683841D01*
X7833873Y-15626699D01*
X7833873Y-15555270D01*
X7848158Y-15498127D01*
X7862444Y-15469556D01*
X7876730Y-15455270D01*
X7905301Y-15440984D01*
X8105301Y-15440984D02*
X8291015Y-15440984D01*
X8191015Y-15555270D01*
X8233873Y-15555270D01*
X8262444Y-15569556D01*
X8276730Y-15583841D01*
X8291015Y-15612413D01*
X8291015Y-15683841D01*
X8276730Y-15712413D01*
X8262444Y-15726699D01*
X8233873Y-15740984D01*
X8148158Y-15740984D01*
X8119587Y-15726699D01*
X8105301Y-15712413D01*
X8576730Y-15740984D02*
X8405301Y-15740984D01*
X8491016Y-15740984D02*
X8491016Y-15440984D01*
X8462444Y-15483841D01*
X8433873Y-15512413D01*
X8405301Y-15526699D01*
X8691016Y-15440984D02*
X8691016Y-15498127D01*
X8805301Y-15440984D02*
X8805301Y-15498127D01*
X9248158Y-15855270D02*
X9233873Y-15840984D01*
X9205301Y-15798127D01*
X9191016Y-15769556D01*
X9176730Y-15726699D01*
X9162444Y-15655270D01*
X9162444Y-15598127D01*
X9176730Y-15526699D01*
X9191016Y-15483841D01*
X9205301Y-15455270D01*
X9233873Y-15412413D01*
X9248158Y-15398127D01*
X9491016Y-15440984D02*
X9433873Y-15440984D01*
X9405301Y-15455270D01*
X9391016Y-15469556D01*
X9362444Y-15512413D01*
X9348158Y-15569556D01*
X9348158Y-15683841D01*
X9362444Y-15712413D01*
X9376730Y-15726699D01*
X9405301Y-15740984D01*
X9462444Y-15740984D01*
X9491016Y-15726699D01*
X9505301Y-15712413D01*
X9519587Y-15683841D01*
X9519587Y-15612413D01*
X9505301Y-15583841D01*
X9491016Y-15569556D01*
X9462444Y-15555270D01*
X9405301Y-15555270D01*
X9376730Y-15569556D01*
X9362444Y-15583841D01*
X9348158Y-15612413D01*
X9876730Y-15740984D02*
X9876730Y-15440984D01*
X10005301Y-15740984D02*
X10005301Y-15583841D01*
X9991016Y-15555270D01*
X9962444Y-15540984D01*
X9919587Y-15540984D01*
X9891016Y-15555270D01*
X9876730Y-15569556D01*
X10191016Y-15740984D02*
X10162444Y-15726699D01*
X10148158Y-15712413D01*
X10133873Y-15683841D01*
X10133873Y-15598127D01*
X10148158Y-15569556D01*
X10162444Y-15555270D01*
X10191016Y-15540984D01*
X10233873Y-15540984D01*
X10262444Y-15555270D01*
X10276730Y-15569556D01*
X10291016Y-15598127D01*
X10291016Y-15683841D01*
X10276730Y-15712413D01*
X10262444Y-15726699D01*
X10233873Y-15740984D01*
X10191016Y-15740984D01*
X10462444Y-15740984D02*
X10433873Y-15726699D01*
X10419587Y-15698127D01*
X10419587Y-15440984D01*
X10691016Y-15726699D02*
X10662444Y-15740984D01*
X10605301Y-15740984D01*
X10576730Y-15726699D01*
X10562444Y-15698127D01*
X10562444Y-15583841D01*
X10576730Y-15555270D01*
X10605301Y-15540984D01*
X10662444Y-15540984D01*
X10691016Y-15555270D01*
X10705301Y-15583841D01*
X10705301Y-15612413D01*
X10562444Y-15640984D01*
X10819587Y-15726699D02*
X10848159Y-15740984D01*
X10905301Y-15740984D01*
X10933873Y-15726699D01*
X10948159Y-15698127D01*
X10948159Y-15683841D01*
X10933873Y-15655270D01*
X10905301Y-15640984D01*
X10862444Y-15640984D01*
X10833873Y-15626699D01*
X10819587Y-15598127D01*
X10819587Y-15583841D01*
X10833873Y-15555270D01*
X10862444Y-15540984D01*
X10905301Y-15540984D01*
X10933873Y-15555270D01*
X11048158Y-15855270D02*
X11062444Y-15840984D01*
X11091016Y-15798127D01*
X11105301Y-15769556D01*
X11119587Y-15726699D01*
X11133873Y-15655270D01*
X11133873Y-15598127D01*
X11119587Y-15526699D01*
X11105301Y-15483841D01*
X11091016Y-15455270D01*
X11062444Y-15412413D01*
X11048158Y-15398127D01*
X4527835Y-15952375D02*
X4527835Y-16050165D01*
X4478940Y-16001270D02*
X4576730Y-16001270D01*
X4905301Y-15836984D02*
X4933873Y-15836984D01*
X4962444Y-15851270D01*
X4976730Y-15865556D01*
X4991016Y-15894127D01*
X5005301Y-15951270D01*
X5005301Y-16022699D01*
X4991016Y-16079841D01*
X4976730Y-16108413D01*
X4962444Y-16122699D01*
X4933873Y-16136984D01*
X4905301Y-16136984D01*
X4876730Y-16122699D01*
X4862444Y-16108413D01*
X4848159Y-16079841D01*
X4833873Y-16022699D01*
X4833873Y-15951270D01*
X4848159Y-15894127D01*
X4862444Y-15865556D01*
X4876730Y-15851270D01*
X4905301Y-15836984D01*
X5133873Y-16108413D02*
X5148159Y-16122699D01*
X5133873Y-16136984D01*
X5119587Y-16122699D01*
X5133873Y-16108413D01*
X5133873Y-16136984D01*
X5291016Y-16136984D02*
X5348158Y-16136984D01*
X5376730Y-16122699D01*
X5391016Y-16108413D01*
X5419587Y-16065556D01*
X5433873Y-16008413D01*
X5433873Y-15894127D01*
X5419587Y-15865556D01*
X5405301Y-15851270D01*
X5376730Y-15836984D01*
X5319587Y-15836984D01*
X5291016Y-15851270D01*
X5276730Y-15865556D01*
X5262444Y-15894127D01*
X5262444Y-15965556D01*
X5276730Y-15994127D01*
X5291016Y-16008413D01*
X5319587Y-16022699D01*
X5376730Y-16022699D01*
X5405301Y-16008413D01*
X5419587Y-15994127D01*
X5433873Y-15965556D01*
X5605301Y-15965556D02*
X5576730Y-15951270D01*
X5562444Y-15936984D01*
X5548159Y-15908413D01*
X5548159Y-15894127D01*
X5562444Y-15865556D01*
X5576730Y-15851270D01*
X5605301Y-15836984D01*
X5662444Y-15836984D01*
X5691016Y-15851270D01*
X5705301Y-15865556D01*
X5719587Y-15894127D01*
X5719587Y-15908413D01*
X5705301Y-15936984D01*
X5691016Y-15951270D01*
X5662444Y-15965556D01*
X5605301Y-15965556D01*
X5576730Y-15979841D01*
X5562444Y-15994127D01*
X5548159Y-16022699D01*
X5548159Y-16079841D01*
X5562444Y-16108413D01*
X5576730Y-16122699D01*
X5605301Y-16136984D01*
X5662444Y-16136984D01*
X5691016Y-16122699D01*
X5705301Y-16108413D01*
X5719587Y-16079841D01*
X5719587Y-16022699D01*
X5705301Y-15994127D01*
X5691016Y-15979841D01*
X5662444Y-15965556D01*
X5848158Y-16136984D02*
X5848158Y-15936984D01*
X5848158Y-15965556D02*
X5862444Y-15951270D01*
X5891016Y-15936984D01*
X5933873Y-15936984D01*
X5962444Y-15951270D01*
X5976730Y-15979841D01*
X5976730Y-16136984D01*
X5976730Y-15979841D02*
X5991016Y-15951270D01*
X6019587Y-15936984D01*
X6062444Y-15936984D01*
X6091016Y-15951270D01*
X6105301Y-15979841D01*
X6105301Y-16136984D01*
X6248158Y-16136984D02*
X6248158Y-15936984D01*
X6248158Y-15965556D02*
X6262444Y-15951270D01*
X6291016Y-15936984D01*
X6333873Y-15936984D01*
X6362444Y-15951270D01*
X6376730Y-15979841D01*
X6376730Y-16136984D01*
X6376730Y-15979841D02*
X6391016Y-15951270D01*
X6419587Y-15936984D01*
X6462444Y-15936984D01*
X6491016Y-15951270D01*
X6505301Y-15979841D01*
X6505301Y-16136984D01*
X7091016Y-15822699D02*
X6833873Y-16208413D01*
X7476730Y-15836984D02*
X7505301Y-15836984D01*
X7533873Y-15851270D01*
X7548158Y-15865556D01*
X7562444Y-15894127D01*
X7576730Y-15951270D01*
X7576730Y-16022699D01*
X7562444Y-16079841D01*
X7548158Y-16108413D01*
X7533873Y-16122699D01*
X7505301Y-16136984D01*
X7476730Y-16136984D01*
X7448158Y-16122699D01*
X7433873Y-16108413D01*
X7419587Y-16079841D01*
X7405301Y-16022699D01*
X7405301Y-15951270D01*
X7419587Y-15894127D01*
X7433873Y-15865556D01*
X7448158Y-15851270D01*
X7476730Y-15836984D01*
X7705301Y-16108413D02*
X7719587Y-16122699D01*
X7705301Y-16136984D01*
X7691016Y-16122699D01*
X7705301Y-16108413D01*
X7705301Y-16136984D01*
X7905301Y-15836984D02*
X7933873Y-15836984D01*
X7962444Y-15851270D01*
X7976730Y-15865556D01*
X7991015Y-15894127D01*
X8005301Y-15951270D01*
X8005301Y-16022699D01*
X7991015Y-16079841D01*
X7976730Y-16108413D01*
X7962444Y-16122699D01*
X7933873Y-16136984D01*
X7905301Y-16136984D01*
X7876730Y-16122699D01*
X7862444Y-16108413D01*
X7848158Y-16079841D01*
X7833873Y-16022699D01*
X7833873Y-15951270D01*
X7848158Y-15894127D01*
X7862444Y-15865556D01*
X7876730Y-15851270D01*
X7905301Y-15836984D01*
X8105301Y-15836984D02*
X8291015Y-15836984D01*
X8191015Y-15951270D01*
X8233873Y-15951270D01*
X8262444Y-15965556D01*
X8276730Y-15979841D01*
X8291015Y-16008413D01*
X8291015Y-16079841D01*
X8276730Y-16108413D01*
X8262444Y-16122699D01*
X8233873Y-16136984D01*
X8148158Y-16136984D01*
X8119587Y-16122699D01*
X8105301Y-16108413D01*
X8462444Y-15965556D02*
X8433873Y-15951270D01*
X8419587Y-15936984D01*
X8405301Y-15908413D01*
X8405301Y-15894127D01*
X8419587Y-15865556D01*
X8433873Y-15851270D01*
X8462444Y-15836984D01*
X8519587Y-15836984D01*
X8548158Y-15851270D01*
X8562444Y-15865556D01*
X8576730Y-15894127D01*
X8576730Y-15908413D01*
X8562444Y-15936984D01*
X8548158Y-15951270D01*
X8519587Y-15965556D01*
X8462444Y-15965556D01*
X8433873Y-15979841D01*
X8419587Y-15994127D01*
X8405301Y-16022699D01*
X8405301Y-16079841D01*
X8419587Y-16108413D01*
X8433873Y-16122699D01*
X8462444Y-16136984D01*
X8519587Y-16136984D01*
X8548158Y-16122699D01*
X8562444Y-16108413D01*
X8576730Y-16079841D01*
X8576730Y-16022699D01*
X8562444Y-15994127D01*
X8548158Y-15979841D01*
X8519587Y-15965556D01*
X8691016Y-15836984D02*
X8691016Y-15894127D01*
X8805301Y-15836984D02*
X8805301Y-15894127D01*
X9248158Y-16251270D02*
X9233873Y-16236984D01*
X9205301Y-16194127D01*
X9191016Y-16165556D01*
X9176730Y-16122699D01*
X9162444Y-16051270D01*
X9162444Y-15994127D01*
X9176730Y-15922699D01*
X9191016Y-15879841D01*
X9205301Y-15851270D01*
X9233873Y-15808413D01*
X9248158Y-15794127D01*
X9348158Y-15865556D02*
X9362444Y-15851270D01*
X9391016Y-15836984D01*
X9462444Y-15836984D01*
X9491016Y-15851270D01*
X9505301Y-15865556D01*
X9519587Y-15894127D01*
X9519587Y-15922699D01*
X9505301Y-15965556D01*
X9333873Y-16136984D01*
X9519587Y-16136984D01*
X9776730Y-15936984D02*
X9776730Y-16136984D01*
X9705301Y-15822699D02*
X9633873Y-16036984D01*
X9819587Y-16036984D01*
X10162444Y-16136984D02*
X10162444Y-15836984D01*
X10291016Y-16136984D02*
X10291016Y-15979841D01*
X10276730Y-15951270D01*
X10248158Y-15936984D01*
X10205301Y-15936984D01*
X10176730Y-15951270D01*
X10162444Y-15965556D01*
X10476730Y-16136984D02*
X10448158Y-16122699D01*
X10433873Y-16108413D01*
X10419587Y-16079841D01*
X10419587Y-15994127D01*
X10433873Y-15965556D01*
X10448158Y-15951270D01*
X10476730Y-15936984D01*
X10519587Y-15936984D01*
X10548158Y-15951270D01*
X10562444Y-15965556D01*
X10576730Y-15994127D01*
X10576730Y-16079841D01*
X10562444Y-16108413D01*
X10548158Y-16122699D01*
X10519587Y-16136984D01*
X10476730Y-16136984D01*
X10748158Y-16136984D02*
X10719587Y-16122699D01*
X10705301Y-16094127D01*
X10705301Y-15836984D01*
X10976730Y-16122699D02*
X10948159Y-16136984D01*
X10891016Y-16136984D01*
X10862444Y-16122699D01*
X10848159Y-16094127D01*
X10848159Y-15979841D01*
X10862444Y-15951270D01*
X10891016Y-15936984D01*
X10948159Y-15936984D01*
X10976730Y-15951270D01*
X10991016Y-15979841D01*
X10991016Y-16008413D01*
X10848159Y-16036984D01*
X11105301Y-16122699D02*
X11133873Y-16136984D01*
X11191016Y-16136984D01*
X11219587Y-16122699D01*
X11233873Y-16094127D01*
X11233873Y-16079841D01*
X11219587Y-16051270D01*
X11191016Y-16036984D01*
X11148159Y-16036984D01*
X11119587Y-16022699D01*
X11105301Y-15994127D01*
X11105301Y-15979841D01*
X11119587Y-15951270D01*
X11148159Y-15936984D01*
X11191016Y-15936984D01*
X11219587Y-15951270D01*
X11333873Y-16251270D02*
X11348158Y-16236984D01*
X11376730Y-16194127D01*
X11391016Y-16165556D01*
X11405301Y-16122699D01*
X11419587Y-16051270D01*
X11419587Y-15994127D01*
X11405301Y-15922699D01*
X11391016Y-15879841D01*
X11376730Y-15851270D01*
X11348158Y-15808413D01*
X11333873Y-15794127D01*
X4561851Y-16433191D02*
X4561851Y-16361349D01*
X4490009Y-16361349D01*
X4490009Y-16433191D01*
X4561851Y-16433191D01*
X5005301Y-16532984D02*
X4833873Y-16532984D01*
X4919587Y-16532984D02*
X4919587Y-16232984D01*
X4891016Y-16275841D01*
X4862444Y-16304413D01*
X4833873Y-16318699D01*
X5133873Y-16504413D02*
X5148159Y-16518699D01*
X5133873Y-16532984D01*
X5119587Y-16518699D01*
X5133873Y-16504413D01*
X5133873Y-16532984D01*
X5333873Y-16232984D02*
X5362444Y-16232984D01*
X5391016Y-16247270D01*
X5405301Y-16261556D01*
X5419587Y-16290127D01*
X5433873Y-16347270D01*
X5433873Y-16418699D01*
X5419587Y-16475841D01*
X5405301Y-16504413D01*
X5391016Y-16518699D01*
X5362444Y-16532984D01*
X5333873Y-16532984D01*
X5305301Y-16518699D01*
X5291016Y-16504413D01*
X5276730Y-16475841D01*
X5262444Y-16418699D01*
X5262444Y-16347270D01*
X5276730Y-16290127D01*
X5291016Y-16261556D01*
X5305301Y-16247270D01*
X5333873Y-16232984D01*
X5548159Y-16261556D02*
X5562444Y-16247270D01*
X5591016Y-16232984D01*
X5662444Y-16232984D01*
X5691016Y-16247270D01*
X5705301Y-16261556D01*
X5719587Y-16290127D01*
X5719587Y-16318699D01*
X5705301Y-16361556D01*
X5533873Y-16532984D01*
X5719587Y-16532984D01*
X5848158Y-16532984D02*
X5848158Y-16332984D01*
X5848158Y-16361556D02*
X5862444Y-16347270D01*
X5891016Y-16332984D01*
X5933873Y-16332984D01*
X5962444Y-16347270D01*
X5976730Y-16375841D01*
X5976730Y-16532984D01*
X5976730Y-16375841D02*
X5991016Y-16347270D01*
X6019587Y-16332984D01*
X6062444Y-16332984D01*
X6091016Y-16347270D01*
X6105301Y-16375841D01*
X6105301Y-16532984D01*
X6248158Y-16532984D02*
X6248158Y-16332984D01*
X6248158Y-16361556D02*
X6262444Y-16347270D01*
X6291016Y-16332984D01*
X6333873Y-16332984D01*
X6362444Y-16347270D01*
X6376730Y-16375841D01*
X6376730Y-16532984D01*
X6376730Y-16375841D02*
X6391016Y-16347270D01*
X6419587Y-16332984D01*
X6462444Y-16332984D01*
X6491016Y-16347270D01*
X6505301Y-16375841D01*
X6505301Y-16532984D01*
X7091016Y-16218699D02*
X6833873Y-16604413D01*
X7476730Y-16232984D02*
X7505301Y-16232984D01*
X7533873Y-16247270D01*
X7548158Y-16261556D01*
X7562444Y-16290127D01*
X7576730Y-16347270D01*
X7576730Y-16418699D01*
X7562444Y-16475841D01*
X7548158Y-16504413D01*
X7533873Y-16518699D01*
X7505301Y-16532984D01*
X7476730Y-16532984D01*
X7448158Y-16518699D01*
X7433873Y-16504413D01*
X7419587Y-16475841D01*
X7405301Y-16418699D01*
X7405301Y-16347270D01*
X7419587Y-16290127D01*
X7433873Y-16261556D01*
X7448158Y-16247270D01*
X7476730Y-16232984D01*
X7705301Y-16504413D02*
X7719587Y-16518699D01*
X7705301Y-16532984D01*
X7691016Y-16518699D01*
X7705301Y-16504413D01*
X7705301Y-16532984D01*
X7905301Y-16232984D02*
X7933873Y-16232984D01*
X7962444Y-16247270D01*
X7976730Y-16261556D01*
X7991015Y-16290127D01*
X8005301Y-16347270D01*
X8005301Y-16418699D01*
X7991015Y-16475841D01*
X7976730Y-16504413D01*
X7962444Y-16518699D01*
X7933873Y-16532984D01*
X7905301Y-16532984D01*
X7876730Y-16518699D01*
X7862444Y-16504413D01*
X7848158Y-16475841D01*
X7833873Y-16418699D01*
X7833873Y-16347270D01*
X7848158Y-16290127D01*
X7862444Y-16261556D01*
X7876730Y-16247270D01*
X7905301Y-16232984D01*
X8262444Y-16332984D02*
X8262444Y-16532984D01*
X8191015Y-16218699D02*
X8119587Y-16432984D01*
X8305301Y-16432984D01*
X8476730Y-16232984D02*
X8505301Y-16232984D01*
X8533873Y-16247270D01*
X8548158Y-16261556D01*
X8562444Y-16290127D01*
X8576730Y-16347270D01*
X8576730Y-16418699D01*
X8562444Y-16475841D01*
X8548158Y-16504413D01*
X8533873Y-16518699D01*
X8505301Y-16532984D01*
X8476730Y-16532984D01*
X8448158Y-16518699D01*
X8433873Y-16504413D01*
X8419587Y-16475841D01*
X8405301Y-16418699D01*
X8405301Y-16347270D01*
X8419587Y-16290127D01*
X8433873Y-16261556D01*
X8448158Y-16247270D01*
X8476730Y-16232984D01*
X8691016Y-16232984D02*
X8691016Y-16290127D01*
X8805301Y-16232984D02*
X8805301Y-16290127D01*
X9248158Y-16647270D02*
X9233873Y-16632984D01*
X9205301Y-16590127D01*
X9191016Y-16561556D01*
X9176730Y-16518699D01*
X9162444Y-16447270D01*
X9162444Y-16390127D01*
X9176730Y-16318699D01*
X9191016Y-16275841D01*
X9205301Y-16247270D01*
X9233873Y-16204413D01*
X9248158Y-16190127D01*
X9376730Y-16532984D02*
X9433873Y-16532984D01*
X9462444Y-16518699D01*
X9476730Y-16504413D01*
X9505301Y-16461556D01*
X9519587Y-16404413D01*
X9519587Y-16290127D01*
X9505301Y-16261556D01*
X9491016Y-16247270D01*
X9462444Y-16232984D01*
X9405301Y-16232984D01*
X9376730Y-16247270D01*
X9362444Y-16261556D01*
X9348158Y-16290127D01*
X9348158Y-16361556D01*
X9362444Y-16390127D01*
X9376730Y-16404413D01*
X9405301Y-16418699D01*
X9462444Y-16418699D01*
X9491016Y-16404413D01*
X9505301Y-16390127D01*
X9519587Y-16361556D01*
X9619587Y-16232984D02*
X9819587Y-16232984D01*
X9691016Y-16532984D01*
X10162444Y-16532984D02*
X10162444Y-16232984D01*
X10291016Y-16532984D02*
X10291016Y-16375841D01*
X10276730Y-16347270D01*
X10248158Y-16332984D01*
X10205301Y-16332984D01*
X10176730Y-16347270D01*
X10162444Y-16361556D01*
X10476730Y-16532984D02*
X10448158Y-16518699D01*
X10433873Y-16504413D01*
X10419587Y-16475841D01*
X10419587Y-16390127D01*
X10433873Y-16361556D01*
X10448158Y-16347270D01*
X10476730Y-16332984D01*
X10519587Y-16332984D01*
X10548158Y-16347270D01*
X10562444Y-16361556D01*
X10576730Y-16390127D01*
X10576730Y-16475841D01*
X10562444Y-16504413D01*
X10548158Y-16518699D01*
X10519587Y-16532984D01*
X10476730Y-16532984D01*
X10748158Y-16532984D02*
X10719587Y-16518699D01*
X10705301Y-16490127D01*
X10705301Y-16232984D01*
X10976730Y-16518699D02*
X10948159Y-16532984D01*
X10891016Y-16532984D01*
X10862444Y-16518699D01*
X10848159Y-16490127D01*
X10848159Y-16375841D01*
X10862444Y-16347270D01*
X10891016Y-16332984D01*
X10948159Y-16332984D01*
X10976730Y-16347270D01*
X10991016Y-16375841D01*
X10991016Y-16404413D01*
X10848159Y-16432984D01*
X11105301Y-16518699D02*
X11133873Y-16532984D01*
X11191016Y-16532984D01*
X11219587Y-16518699D01*
X11233873Y-16490127D01*
X11233873Y-16475841D01*
X11219587Y-16447270D01*
X11191016Y-16432984D01*
X11148159Y-16432984D01*
X11119587Y-16418699D01*
X11105301Y-16390127D01*
X11105301Y-16375841D01*
X11119587Y-16347270D01*
X11148159Y-16332984D01*
X11191016Y-16332984D01*
X11219587Y-16347270D01*
X11333873Y-16647270D02*
X11348158Y-16632984D01*
X11376730Y-16590127D01*
X11391016Y-16561556D01*
X11405301Y-16518699D01*
X11419587Y-16447270D01*
X11419587Y-16390127D01*
X11405301Y-16318699D01*
X11391016Y-16275841D01*
X11376730Y-16247270D01*
X11348158Y-16204413D01*
X11333873Y-16190127D01*
X4506730Y-16863270D02*
X4576730Y-16793270D01*
X4506730Y-16723270D01*
X4436730Y-16793270D01*
X4506730Y-16863270D01*
X5005301Y-16928984D02*
X4833873Y-16928984D01*
X4919587Y-16928984D02*
X4919587Y-16628984D01*
X4891016Y-16671841D01*
X4862444Y-16700413D01*
X4833873Y-16714699D01*
X5133873Y-16900413D02*
X5148159Y-16914699D01*
X5133873Y-16928984D01*
X5119587Y-16914699D01*
X5133873Y-16900413D01*
X5133873Y-16928984D01*
X5405301Y-16728984D02*
X5405301Y-16928984D01*
X5333873Y-16614699D02*
X5262444Y-16828984D01*
X5448158Y-16828984D01*
X5619587Y-16628984D02*
X5648158Y-16628984D01*
X5676730Y-16643270D01*
X5691016Y-16657556D01*
X5705301Y-16686127D01*
X5719587Y-16743270D01*
X5719587Y-16814699D01*
X5705301Y-16871842D01*
X5691016Y-16900413D01*
X5676730Y-16914699D01*
X5648158Y-16928984D01*
X5619587Y-16928984D01*
X5591016Y-16914699D01*
X5576730Y-16900413D01*
X5562444Y-16871842D01*
X5548159Y-16814699D01*
X5548159Y-16743270D01*
X5562444Y-16686127D01*
X5576730Y-16657556D01*
X5591016Y-16643270D01*
X5619587Y-16628984D01*
X5848158Y-16928984D02*
X5848158Y-16728984D01*
X5848158Y-16757556D02*
X5862444Y-16743270D01*
X5891016Y-16728984D01*
X5933873Y-16728984D01*
X5962444Y-16743270D01*
X5976730Y-16771841D01*
X5976730Y-16928984D01*
X5976730Y-16771841D02*
X5991016Y-16743270D01*
X6019587Y-16728984D01*
X6062444Y-16728984D01*
X6091016Y-16743270D01*
X6105301Y-16771841D01*
X6105301Y-16928984D01*
X6248158Y-16928984D02*
X6248158Y-16728984D01*
X6248158Y-16757556D02*
X6262444Y-16743270D01*
X6291016Y-16728984D01*
X6333873Y-16728984D01*
X6362444Y-16743270D01*
X6376730Y-16771841D01*
X6376730Y-16928984D01*
X6376730Y-16771841D02*
X6391016Y-16743270D01*
X6419587Y-16728984D01*
X6462444Y-16728984D01*
X6491016Y-16743270D01*
X6505301Y-16771841D01*
X6505301Y-16928984D01*
X7091016Y-16614699D02*
X6833873Y-17000413D01*
X7476730Y-16628984D02*
X7505301Y-16628984D01*
X7533873Y-16643270D01*
X7548158Y-16657556D01*
X7562444Y-16686127D01*
X7576730Y-16743270D01*
X7576730Y-16814699D01*
X7562444Y-16871842D01*
X7548158Y-16900413D01*
X7533873Y-16914699D01*
X7505301Y-16928984D01*
X7476730Y-16928984D01*
X7448158Y-16914699D01*
X7433873Y-16900413D01*
X7419587Y-16871842D01*
X7405301Y-16814699D01*
X7405301Y-16743270D01*
X7419587Y-16686127D01*
X7433873Y-16657556D01*
X7448158Y-16643270D01*
X7476730Y-16628984D01*
X7705301Y-16900413D02*
X7719587Y-16914699D01*
X7705301Y-16928984D01*
X7691016Y-16914699D01*
X7705301Y-16900413D01*
X7705301Y-16928984D01*
X7905301Y-16628984D02*
X7933873Y-16628984D01*
X7962444Y-16643270D01*
X7976730Y-16657556D01*
X7991015Y-16686127D01*
X8005301Y-16743270D01*
X8005301Y-16814699D01*
X7991015Y-16871842D01*
X7976730Y-16900413D01*
X7962444Y-16914699D01*
X7933873Y-16928984D01*
X7905301Y-16928984D01*
X7876730Y-16914699D01*
X7862444Y-16900413D01*
X7848158Y-16871842D01*
X7833873Y-16814699D01*
X7833873Y-16743270D01*
X7848158Y-16686127D01*
X7862444Y-16657556D01*
X7876730Y-16643270D01*
X7905301Y-16628984D01*
X8276730Y-16628984D02*
X8133873Y-16628984D01*
X8119587Y-16771841D01*
X8133873Y-16757556D01*
X8162444Y-16743270D01*
X8233873Y-16743270D01*
X8262444Y-16757556D01*
X8276730Y-16771841D01*
X8291015Y-16800413D01*
X8291015Y-16871842D01*
X8276730Y-16900413D01*
X8262444Y-16914699D01*
X8233873Y-16928984D01*
X8162444Y-16928984D01*
X8133873Y-16914699D01*
X8119587Y-16900413D01*
X8562444Y-16628984D02*
X8419587Y-16628984D01*
X8405301Y-16771841D01*
X8419587Y-16757556D01*
X8448158Y-16743270D01*
X8519587Y-16743270D01*
X8548158Y-16757556D01*
X8562444Y-16771841D01*
X8576730Y-16800413D01*
X8576730Y-16871842D01*
X8562444Y-16900413D01*
X8548158Y-16914699D01*
X8519587Y-16928984D01*
X8448158Y-16928984D01*
X8419587Y-16914699D01*
X8405301Y-16900413D01*
X8691016Y-16628984D02*
X8691016Y-16686127D01*
X8805301Y-16628984D02*
X8805301Y-16686127D01*
X9248158Y-17043270D02*
X9233873Y-17028984D01*
X9205301Y-16986127D01*
X9191016Y-16957556D01*
X9176730Y-16914699D01*
X9162444Y-16843270D01*
X9162444Y-16786127D01*
X9176730Y-16714699D01*
X9191016Y-16671841D01*
X9205301Y-16643270D01*
X9233873Y-16600413D01*
X9248158Y-16586127D01*
X9491016Y-16728984D02*
X9491016Y-16928984D01*
X9419587Y-16614699D02*
X9348158Y-16828984D01*
X9533873Y-16828984D01*
X9876730Y-16928984D02*
X9876730Y-16628984D01*
X10005301Y-16928984D02*
X10005301Y-16771841D01*
X9991016Y-16743270D01*
X9962444Y-16728984D01*
X9919587Y-16728984D01*
X9891016Y-16743270D01*
X9876730Y-16757556D01*
X10191016Y-16928984D02*
X10162444Y-16914699D01*
X10148158Y-16900413D01*
X10133873Y-16871842D01*
X10133873Y-16786127D01*
X10148158Y-16757556D01*
X10162444Y-16743270D01*
X10191016Y-16728984D01*
X10233873Y-16728984D01*
X10262444Y-16743270D01*
X10276730Y-16757556D01*
X10291016Y-16786127D01*
X10291016Y-16871842D01*
X10276730Y-16900413D01*
X10262444Y-16914699D01*
X10233873Y-16928984D01*
X10191016Y-16928984D01*
X10462444Y-16928984D02*
X10433873Y-16914699D01*
X10419587Y-16886127D01*
X10419587Y-16628984D01*
X10691016Y-16914699D02*
X10662444Y-16928984D01*
X10605301Y-16928984D01*
X10576730Y-16914699D01*
X10562444Y-16886127D01*
X10562444Y-16771841D01*
X10576730Y-16743270D01*
X10605301Y-16728984D01*
X10662444Y-16728984D01*
X10691016Y-16743270D01*
X10705301Y-16771841D01*
X10705301Y-16800413D01*
X10562444Y-16828984D01*
X10819587Y-16914699D02*
X10848159Y-16928984D01*
X10905301Y-16928984D01*
X10933873Y-16914699D01*
X10948159Y-16886127D01*
X10948159Y-16871842D01*
X10933873Y-16843270D01*
X10905301Y-16828984D01*
X10862444Y-16828984D01*
X10833873Y-16814699D01*
X10819587Y-16786127D01*
X10819587Y-16771841D01*
X10833873Y-16743270D01*
X10862444Y-16728984D01*
X10905301Y-16728984D01*
X10933873Y-16743270D01*
X11048158Y-17043270D02*
X11062444Y-17028984D01*
X11091016Y-16986127D01*
X11105301Y-16957556D01*
X11119587Y-16914699D01*
X11133873Y-16843270D01*
X11133873Y-16786127D01*
X11119587Y-16714699D01*
X11105301Y-16671841D01*
X11091016Y-16643270D01*
X11062444Y-16600413D01*
X11048158Y-16586127D01*
X4426616Y-17114213D02*
X4576730Y-17264327D01*
X4576730Y-17114213D02*
X4426616Y-17264327D01*
X4576730Y-17189270D02*
G75*
G03X4576730Y-17189270I-75057J0D01*
G01*
X5005301Y-17324984D02*
X4833873Y-17324984D01*
X4919587Y-17324984D02*
X4919587Y-17024984D01*
X4891016Y-17067842D01*
X4862444Y-17096413D01*
X4833873Y-17110699D01*
X5133873Y-17296413D02*
X5148159Y-17310699D01*
X5133873Y-17324984D01*
X5119587Y-17310699D01*
X5133873Y-17296413D01*
X5133873Y-17324984D01*
X5419587Y-17024984D02*
X5276730Y-17024984D01*
X5262444Y-17167842D01*
X5276730Y-17153556D01*
X5305301Y-17139270D01*
X5376730Y-17139270D01*
X5405301Y-17153556D01*
X5419587Y-17167842D01*
X5433873Y-17196413D01*
X5433873Y-17267842D01*
X5419587Y-17296413D01*
X5405301Y-17310699D01*
X5376730Y-17324984D01*
X5305301Y-17324984D01*
X5276730Y-17310699D01*
X5262444Y-17296413D01*
X5619587Y-17024984D02*
X5648158Y-17024984D01*
X5676730Y-17039270D01*
X5691016Y-17053556D01*
X5705301Y-17082127D01*
X5719587Y-17139270D01*
X5719587Y-17210699D01*
X5705301Y-17267842D01*
X5691016Y-17296413D01*
X5676730Y-17310699D01*
X5648158Y-17324984D01*
X5619587Y-17324984D01*
X5591016Y-17310699D01*
X5576730Y-17296413D01*
X5562444Y-17267842D01*
X5548159Y-17210699D01*
X5548159Y-17139270D01*
X5562444Y-17082127D01*
X5576730Y-17053556D01*
X5591016Y-17039270D01*
X5619587Y-17024984D01*
X5848158Y-17324984D02*
X5848158Y-17124984D01*
X5848158Y-17153556D02*
X5862444Y-17139270D01*
X5891016Y-17124984D01*
X5933873Y-17124984D01*
X5962444Y-17139270D01*
X5976730Y-17167842D01*
X5976730Y-17324984D01*
X5976730Y-17167842D02*
X5991016Y-17139270D01*
X6019587Y-17124984D01*
X6062444Y-17124984D01*
X6091016Y-17139270D01*
X6105301Y-17167842D01*
X6105301Y-17324984D01*
X6248158Y-17324984D02*
X6248158Y-17124984D01*
X6248158Y-17153556D02*
X6262444Y-17139270D01*
X6291016Y-17124984D01*
X6333873Y-17124984D01*
X6362444Y-17139270D01*
X6376730Y-17167842D01*
X6376730Y-17324984D01*
X6376730Y-17167842D02*
X6391016Y-17139270D01*
X6419587Y-17124984D01*
X6462444Y-17124984D01*
X6491016Y-17139270D01*
X6505301Y-17167842D01*
X6505301Y-17324984D01*
X7091016Y-17010699D02*
X6833873Y-17396413D01*
X7476730Y-17024984D02*
X7505301Y-17024984D01*
X7533873Y-17039270D01*
X7548158Y-17053556D01*
X7562444Y-17082127D01*
X7576730Y-17139270D01*
X7576730Y-17210699D01*
X7562444Y-17267842D01*
X7548158Y-17296413D01*
X7533873Y-17310699D01*
X7505301Y-17324984D01*
X7476730Y-17324984D01*
X7448158Y-17310699D01*
X7433873Y-17296413D01*
X7419587Y-17267842D01*
X7405301Y-17210699D01*
X7405301Y-17139270D01*
X7419587Y-17082127D01*
X7433873Y-17053556D01*
X7448158Y-17039270D01*
X7476730Y-17024984D01*
X7705301Y-17296413D02*
X7719587Y-17310699D01*
X7705301Y-17324984D01*
X7691016Y-17310699D01*
X7705301Y-17296413D01*
X7705301Y-17324984D01*
X7905301Y-17024984D02*
X7933873Y-17024984D01*
X7962444Y-17039270D01*
X7976730Y-17053556D01*
X7991015Y-17082127D01*
X8005301Y-17139270D01*
X8005301Y-17210699D01*
X7991015Y-17267842D01*
X7976730Y-17296413D01*
X7962444Y-17310699D01*
X7933873Y-17324984D01*
X7905301Y-17324984D01*
X7876730Y-17310699D01*
X7862444Y-17296413D01*
X7848158Y-17267842D01*
X7833873Y-17210699D01*
X7833873Y-17139270D01*
X7848158Y-17082127D01*
X7862444Y-17053556D01*
X7876730Y-17039270D01*
X7905301Y-17024984D01*
X8276730Y-17024984D02*
X8133873Y-17024984D01*
X8119587Y-17167842D01*
X8133873Y-17153556D01*
X8162444Y-17139270D01*
X8233873Y-17139270D01*
X8262444Y-17153556D01*
X8276730Y-17167842D01*
X8291015Y-17196413D01*
X8291015Y-17267842D01*
X8276730Y-17296413D01*
X8262444Y-17310699D01*
X8233873Y-17324984D01*
X8162444Y-17324984D01*
X8133873Y-17310699D01*
X8119587Y-17296413D01*
X8433873Y-17324984D02*
X8491016Y-17324984D01*
X8519587Y-17310699D01*
X8533873Y-17296413D01*
X8562444Y-17253556D01*
X8576730Y-17196413D01*
X8576730Y-17082127D01*
X8562444Y-17053556D01*
X8548158Y-17039270D01*
X8519587Y-17024984D01*
X8462444Y-17024984D01*
X8433873Y-17039270D01*
X8419587Y-17053556D01*
X8405301Y-17082127D01*
X8405301Y-17153556D01*
X8419587Y-17182127D01*
X8433873Y-17196413D01*
X8462444Y-17210699D01*
X8519587Y-17210699D01*
X8548158Y-17196413D01*
X8562444Y-17182127D01*
X8576730Y-17153556D01*
X8691016Y-17024984D02*
X8691016Y-17082127D01*
X8805301Y-17024984D02*
X8805301Y-17082127D01*
X9248158Y-17439270D02*
X9233873Y-17424984D01*
X9205301Y-17382127D01*
X9191016Y-17353556D01*
X9176730Y-17310699D01*
X9162444Y-17239270D01*
X9162444Y-17182127D01*
X9176730Y-17110699D01*
X9191016Y-17067842D01*
X9205301Y-17039270D01*
X9233873Y-16996413D01*
X9248158Y-16982127D01*
X9491016Y-17124984D02*
X9491016Y-17324984D01*
X9419587Y-17010699D02*
X9348158Y-17224984D01*
X9533873Y-17224984D01*
X9876730Y-17324984D02*
X9876730Y-17024984D01*
X10005301Y-17324984D02*
X10005301Y-17167842D01*
X9991016Y-17139270D01*
X9962444Y-17124984D01*
X9919587Y-17124984D01*
X9891016Y-17139270D01*
X9876730Y-17153556D01*
X10191016Y-17324984D02*
X10162444Y-17310699D01*
X10148158Y-17296413D01*
X10133873Y-17267842D01*
X10133873Y-17182127D01*
X10148158Y-17153556D01*
X10162444Y-17139270D01*
X10191016Y-17124984D01*
X10233873Y-17124984D01*
X10262444Y-17139270D01*
X10276730Y-17153556D01*
X10291016Y-17182127D01*
X10291016Y-17267842D01*
X10276730Y-17296413D01*
X10262444Y-17310699D01*
X10233873Y-17324984D01*
X10191016Y-17324984D01*
X10462444Y-17324984D02*
X10433873Y-17310699D01*
X10419587Y-17282127D01*
X10419587Y-17024984D01*
X10691016Y-17310699D02*
X10662444Y-17324984D01*
X10605301Y-17324984D01*
X10576730Y-17310699D01*
X10562444Y-17282127D01*
X10562444Y-17167842D01*
X10576730Y-17139270D01*
X10605301Y-17124984D01*
X10662444Y-17124984D01*
X10691016Y-17139270D01*
X10705301Y-17167842D01*
X10705301Y-17196413D01*
X10562444Y-17224984D01*
X10819587Y-17310699D02*
X10848159Y-17324984D01*
X10905301Y-17324984D01*
X10933873Y-17310699D01*
X10948159Y-17282127D01*
X10948159Y-17267842D01*
X10933873Y-17239270D01*
X10905301Y-17224984D01*
X10862444Y-17224984D01*
X10833873Y-17210699D01*
X10819587Y-17182127D01*
X10819587Y-17167842D01*
X10833873Y-17139270D01*
X10862444Y-17124984D01*
X10905301Y-17124984D01*
X10933873Y-17139270D01*
X11048158Y-17439270D02*
X11062444Y-17424984D01*
X11091016Y-17382127D01*
X11105301Y-17353556D01*
X11119587Y-17310699D01*
X11133873Y-17239270D01*
X11133873Y-17182127D01*
X11119587Y-17110699D01*
X11105301Y-17067842D01*
X11091016Y-17039270D01*
X11062444Y-16996413D01*
X11048158Y-16982127D01*
X4271930Y-17432870D02*
X4576730Y-17737670D01*
X4576730Y-17432870D02*
X4271930Y-17737670D01*
X4424330Y-17432870D02*
X4424330Y-17737670D01*
X4271930Y-17585270D02*
X4576730Y-17585270D01*
X4819587Y-17420984D02*
X5005301Y-17420984D01*
X4905301Y-17535270D01*
X4948159Y-17535270D01*
X4976730Y-17549556D01*
X4991016Y-17563842D01*
X5005301Y-17592413D01*
X5005301Y-17663842D01*
X4991016Y-17692413D01*
X4976730Y-17706699D01*
X4948159Y-17720984D01*
X4862444Y-17720984D01*
X4833873Y-17706699D01*
X4819587Y-17692413D01*
X5133873Y-17692413D02*
X5148159Y-17706699D01*
X5133873Y-17720984D01*
X5119587Y-17706699D01*
X5133873Y-17692413D01*
X5133873Y-17720984D01*
X5333873Y-17420984D02*
X5362444Y-17420984D01*
X5391016Y-17435270D01*
X5405301Y-17449556D01*
X5419587Y-17478127D01*
X5433873Y-17535270D01*
X5433873Y-17606699D01*
X5419587Y-17663842D01*
X5405301Y-17692413D01*
X5391016Y-17706699D01*
X5362444Y-17720984D01*
X5333873Y-17720984D01*
X5305301Y-17706699D01*
X5291016Y-17692413D01*
X5276730Y-17663842D01*
X5262444Y-17606699D01*
X5262444Y-17535270D01*
X5276730Y-17478127D01*
X5291016Y-17449556D01*
X5305301Y-17435270D01*
X5333873Y-17420984D01*
X5705301Y-17420984D02*
X5562444Y-17420984D01*
X5548159Y-17563842D01*
X5562444Y-17549556D01*
X5591016Y-17535270D01*
X5662444Y-17535270D01*
X5691016Y-17549556D01*
X5705301Y-17563842D01*
X5719587Y-17592413D01*
X5719587Y-17663842D01*
X5705301Y-17692413D01*
X5691016Y-17706699D01*
X5662444Y-17720984D01*
X5591016Y-17720984D01*
X5562444Y-17706699D01*
X5548159Y-17692413D01*
X5848158Y-17720984D02*
X5848158Y-17520984D01*
X5848158Y-17549556D02*
X5862444Y-17535270D01*
X5891016Y-17520984D01*
X5933873Y-17520984D01*
X5962444Y-17535270D01*
X5976730Y-17563842D01*
X5976730Y-17720984D01*
X5976730Y-17563842D02*
X5991016Y-17535270D01*
X6019587Y-17520984D01*
X6062444Y-17520984D01*
X6091016Y-17535270D01*
X6105301Y-17563842D01*
X6105301Y-17720984D01*
X6248158Y-17720984D02*
X6248158Y-17520984D01*
X6248158Y-17549556D02*
X6262444Y-17535270D01*
X6291016Y-17520984D01*
X6333873Y-17520984D01*
X6362444Y-17535270D01*
X6376730Y-17563842D01*
X6376730Y-17720984D01*
X6376730Y-17563842D02*
X6391016Y-17535270D01*
X6419587Y-17520984D01*
X6462444Y-17520984D01*
X6491016Y-17535270D01*
X6505301Y-17563842D01*
X6505301Y-17720984D01*
X7091016Y-17406699D02*
X6833873Y-17792413D01*
X7476730Y-17420984D02*
X7505301Y-17420984D01*
X7533873Y-17435270D01*
X7548158Y-17449556D01*
X7562444Y-17478127D01*
X7576730Y-17535270D01*
X7576730Y-17606699D01*
X7562444Y-17663842D01*
X7548158Y-17692413D01*
X7533873Y-17706699D01*
X7505301Y-17720984D01*
X7476730Y-17720984D01*
X7448158Y-17706699D01*
X7433873Y-17692413D01*
X7419587Y-17663842D01*
X7405301Y-17606699D01*
X7405301Y-17535270D01*
X7419587Y-17478127D01*
X7433873Y-17449556D01*
X7448158Y-17435270D01*
X7476730Y-17420984D01*
X7705301Y-17692413D02*
X7719587Y-17706699D01*
X7705301Y-17720984D01*
X7691016Y-17706699D01*
X7705301Y-17692413D01*
X7705301Y-17720984D01*
X8005301Y-17720984D02*
X7833873Y-17720984D01*
X7919587Y-17720984D02*
X7919587Y-17420984D01*
X7891015Y-17463842D01*
X7862444Y-17492413D01*
X7833873Y-17506699D01*
X8119587Y-17449556D02*
X8133873Y-17435270D01*
X8162444Y-17420984D01*
X8233873Y-17420984D01*
X8262444Y-17435270D01*
X8276730Y-17449556D01*
X8291015Y-17478127D01*
X8291015Y-17506699D01*
X8276730Y-17549556D01*
X8105301Y-17720984D01*
X8291015Y-17720984D01*
X8476730Y-17420984D02*
X8505301Y-17420984D01*
X8533873Y-17435270D01*
X8548158Y-17449556D01*
X8562444Y-17478127D01*
X8576730Y-17535270D01*
X8576730Y-17606699D01*
X8562444Y-17663842D01*
X8548158Y-17692413D01*
X8533873Y-17706699D01*
X8505301Y-17720984D01*
X8476730Y-17720984D01*
X8448158Y-17706699D01*
X8433873Y-17692413D01*
X8419587Y-17663842D01*
X8405301Y-17606699D01*
X8405301Y-17535270D01*
X8419587Y-17478127D01*
X8433873Y-17449556D01*
X8448158Y-17435270D01*
X8476730Y-17420984D01*
X8691016Y-17420984D02*
X8691016Y-17478127D01*
X8805301Y-17420984D02*
X8805301Y-17478127D01*
X9248158Y-17835270D02*
X9233873Y-17820984D01*
X9205301Y-17778127D01*
X9191016Y-17749556D01*
X9176730Y-17706699D01*
X9162444Y-17635270D01*
X9162444Y-17578127D01*
X9176730Y-17506699D01*
X9191016Y-17463842D01*
X9205301Y-17435270D01*
X9233873Y-17392413D01*
X9248158Y-17378127D01*
X9491016Y-17420984D02*
X9433873Y-17420984D01*
X9405301Y-17435270D01*
X9391016Y-17449556D01*
X9362444Y-17492413D01*
X9348158Y-17549556D01*
X9348158Y-17663842D01*
X9362444Y-17692413D01*
X9376730Y-17706699D01*
X9405301Y-17720984D01*
X9462444Y-17720984D01*
X9491016Y-17706699D01*
X9505301Y-17692413D01*
X9519587Y-17663842D01*
X9519587Y-17592413D01*
X9505301Y-17563842D01*
X9491016Y-17549556D01*
X9462444Y-17535270D01*
X9405301Y-17535270D01*
X9376730Y-17549556D01*
X9362444Y-17563842D01*
X9348158Y-17592413D01*
X9876730Y-17720984D02*
X9876730Y-17420984D01*
X10005301Y-17720984D02*
X10005301Y-17563842D01*
X9991016Y-17535270D01*
X9962444Y-17520984D01*
X9919587Y-17520984D01*
X9891016Y-17535270D01*
X9876730Y-17549556D01*
X10191016Y-17720984D02*
X10162444Y-17706699D01*
X10148158Y-17692413D01*
X10133873Y-17663842D01*
X10133873Y-17578127D01*
X10148158Y-17549556D01*
X10162444Y-17535270D01*
X10191016Y-17520984D01*
X10233873Y-17520984D01*
X10262444Y-17535270D01*
X10276730Y-17549556D01*
X10291016Y-17578127D01*
X10291016Y-17663842D01*
X10276730Y-17692413D01*
X10262444Y-17706699D01*
X10233873Y-17720984D01*
X10191016Y-17720984D01*
X10462444Y-17720984D02*
X10433873Y-17706699D01*
X10419587Y-17678127D01*
X10419587Y-17420984D01*
X10691016Y-17706699D02*
X10662444Y-17720984D01*
X10605301Y-17720984D01*
X10576730Y-17706699D01*
X10562444Y-17678127D01*
X10562444Y-17563842D01*
X10576730Y-17535270D01*
X10605301Y-17520984D01*
X10662444Y-17520984D01*
X10691016Y-17535270D01*
X10705301Y-17563842D01*
X10705301Y-17592413D01*
X10562444Y-17620984D01*
X10819587Y-17706699D02*
X10848159Y-17720984D01*
X10905301Y-17720984D01*
X10933873Y-17706699D01*
X10948159Y-17678127D01*
X10948159Y-17663842D01*
X10933873Y-17635270D01*
X10905301Y-17620984D01*
X10862444Y-17620984D01*
X10833873Y-17606699D01*
X10819587Y-17578127D01*
X10819587Y-17563842D01*
X10833873Y-17535270D01*
X10862444Y-17520984D01*
X10905301Y-17520984D01*
X10933873Y-17535270D01*
X11048158Y-17835270D02*
X11062444Y-17820984D01*
X11091016Y-17778127D01*
X11105301Y-17749556D01*
X11119587Y-17706699D01*
X11133873Y-17635270D01*
X11133873Y-17578127D01*
X11119587Y-17506699D01*
X11105301Y-17463842D01*
X11091016Y-17435270D01*
X11062444Y-17392413D01*
X11048158Y-17378127D01*
M02*
