M48
;DRILL file {KiCad 4.0.4-stable} date 01/23/17 14:00:10
;FORMAT={-:-/ absolute / metric / decimal}
FMAT,2
METRIC,TZ
T1C1.524
T2C2.045
T3C5.080
%
G90
G05
M71
T1
X66.1Y-35.8
X66.1Y-62.6
X81.34Y-29.9
X81.364Y-43.1
X96.58Y-30.72
X96.58Y-57.52
X111.82Y-32.44
X111.844Y-45.64
X127.06Y-32.44
X127.084Y-45.64
X142.3Y-32.44
X142.324Y-45.64
X157.54Y-32.44
X157.564Y-45.64
X172.78Y-33.26
X172.78Y-60.06
X188.02Y-29.9
X188.044Y-43.1
X203.24Y-29.9
X203.264Y-43.1
T2
X66.929Y-86.131
X70.612Y-93.574
X94.742Y-93.574
X98.425Y-86.131
T3
X53.086Y-68.834
X53.34Y-134.874
X211.597Y-68.834
X211.597Y-134.874
T0
M30
